<svg xmlns="http://www.w3.org/2000/svg" xmlns:xlink="http://www.w3.org/1999/xlink" viewBox="0 0 500 500"><defs><clipPath id="freepik--clip-path--inject-118"><path d="M388.38,333.56a12.7,12.7,0,0,1-7-1.91l-.12-.08-.19-.1c-4.48-3.08-6.92-9.29-6.92-17.53,0-10.26,3.85-22.35,10.56-33.17,5.83-9.42,13.29-17.07,21-21.55,4.55-2.61,9-4,12.84-4a13.32,13.32,0,0,1,5.72,1.21l.27.15c5.22,2.64,8.2,9.3,8.2,18.27,0,20.1-14.17,44.64-31.58,54.7C396.67,332.17,392.23,333.56,388.38,333.56Z" style="fill:#fafafa"></path></clipPath><clipPath id="freepik--clip-path-2--inject-118"><path d="M388.38,333.56a12.7,12.7,0,0,1-7-1.91l-.12-.08-.19-.1c-4.48-3.08-6.92-9.29-6.92-17.53,0-10.26,3.85-22.35,10.56-33.17,5.83-9.42,13.29-17.07,21-21.55,4.55-2.61,9-4,12.84-4a13.32,13.32,0,0,1,5.72,1.21l.27.15c5.22,2.64,8.2,9.3,8.2,18.27,0,20.1-14.17,44.64-31.58,54.7C396.67,332.17,392.23,333.56,388.38,333.56Z" style="fill:none"></path></clipPath><clipPath id="freepik--clip-path-3--inject-118"><path d="M381.66,188.52a10.91,10.91,0,0,1-6-1.64l-.1-.06-.16-.1c-3.83-2.63-5.93-7.95-5.93-15,0-8.79,3.3-19.14,9-28.41,5-8.07,11.39-14.62,18-18.46a22.77,22.77,0,0,1,11-3.43,11.41,11.41,0,0,1,4.89,1l.24.13c4.46,2.26,7,8,7,15.65,0,17.23-12.14,38.25-27.06,46.86A22.62,22.62,0,0,1,381.66,188.52Z" style="fill:#fafafa"></path></clipPath><clipPath id="freepik--clip-path-4--inject-118"><path d="M381.66,188.52a10.91,10.91,0,0,1-6-1.64l-.1-.06-.16-.1c-3.83-2.63-5.93-7.95-5.93-15,0-8.79,3.3-19.14,9-28.41,5-8.07,11.39-14.62,18-18.46a22.77,22.77,0,0,1,11-3.43,11.41,11.41,0,0,1,4.89,1l.24.13c4.46,2.26,7,8,7,15.65,0,17.23-12.14,38.25-27.06,46.86A22.62,22.62,0,0,1,381.66,188.52Z" style="fill:none"></path></clipPath><clipPath id="freepik--clip-path-5--inject-118"><path d="M220.54,233.44l80-46.19c1.51-.87,2.74-.16,2.74,1.59V341.05a6.06,6.06,0,0,1-2.74,4.75l-80,46.19c-1.51.88-2.74.17-2.74-1.58V238.2A6.1,6.1,0,0,1,220.54,233.44Z" style="fill:none"></path></clipPath><clipPath id="freepik--clip-path-6--inject-118"><path d="M246.54,128.61a12.47,12.47,0,0,1-6.83-1.87l-.12-.07-.18-.1c-4.38-3-6.77-9.09-6.77-17.16,0-10,3.76-21.86,10.33-32.45,5.7-9.22,13-16.7,20.58-21.09C268,53.31,272.35,52,276.12,52a12.9,12.9,0,0,1,5.59,1.18l.27.14c5.1,2.59,8,9.1,8,17.88,0,19.68-13.86,43.69-30.91,53.53C254.65,127.26,250.31,128.61,246.54,128.61Z" style="fill:#fafafa"></path></clipPath><clipPath id="freepik--clip-path-7--inject-118"><path d="M246.54,128.61a12.47,12.47,0,0,1-6.83-1.87l-.12-.07-.18-.1c-4.38-3-6.77-9.09-6.77-17.16,0-10,3.76-21.86,10.33-32.45,5.7-9.22,13-16.7,20.58-21.09C268,53.31,272.35,52,276.12,52a12.9,12.9,0,0,1,5.59,1.18l.27.14c5.1,2.59,8,9.1,8,17.88,0,19.68-13.86,43.69-30.91,53.53C254.65,127.26,250.31,128.61,246.54,128.61Z" style="fill:none"></path></clipPath><clipPath id="freepik--clip-path-8--inject-118"><path d="M91.66,398a12.88,12.88,0,0,1-7-1.92l-.12-.08-.19-.11c-4.51-3.09-7-9.34-7-17.64,0-10.33,3.88-22.5,10.63-33.4,5.87-9.48,13.39-17.18,21.18-21.69,4.58-2.64,9-4,12.93-4a13.42,13.42,0,0,1,5.75,1.21l.28.15c5.25,2.66,8.26,9.37,8.26,18.4,0,20.24-14.27,44.95-31.81,55.07C100,396.59,95.54,398,91.66,398Z" style="fill:#fafafa"></path></clipPath><clipPath id="freepik--clip-path-9--inject-118"><path d="M91.66,398a12.88,12.88,0,0,1-7-1.92l-.12-.08-.19-.11c-4.51-3.09-7-9.34-7-17.64,0-10.33,3.88-22.5,10.63-33.4,5.87-9.48,13.39-17.18,21.18-21.69,4.58-2.64,9-4,12.93-4a13.42,13.42,0,0,1,5.75,1.21l.28.15c5.25,2.66,8.26,9.37,8.26,18.4,0,20.24-14.27,44.95-31.81,55.07C100,396.59,95.54,398,91.66,398Z" style="fill:none"></path></clipPath><clipPath id="freepik--clip-path-10--inject-118"><path d="M98.45,239.15a10.88,10.88,0,0,1-6-1.64l-.1-.06-.16-.09c-3.84-2.64-5.93-8-5.93-15,0-8.79,3.3-19.14,9-28.41,5-8.07,11.39-14.62,18-18.46a22.81,22.81,0,0,1,11-3.43,11.32,11.32,0,0,1,4.9,1l.23.12c4.47,2.26,7,8,7,15.65,0,17.23-12.14,38.25-27.06,46.86A22.66,22.66,0,0,1,98.45,239.15Z" style="fill:#fafafa"></path></clipPath><clipPath id="freepik--clip-path-11--inject-118"><path d="M98.45,239.15a10.88,10.88,0,0,1-6-1.64l-.1-.06-.16-.09c-3.84-2.64-5.93-8-5.93-15,0-8.79,3.3-19.14,9-28.41,5-8.07,11.39-14.62,18-18.46a22.81,22.81,0,0,1,11-3.43,11.32,11.32,0,0,1,4.9,1l.23.12c4.47,2.26,7,8,7,15.65,0,17.23-12.14,38.25-27.06,46.86A22.66,22.66,0,0,1,98.45,239.15Z" style="fill:none"></path></clipPath></defs><g id="freepik--Floor--inject-118"><path id="freepik--floor--inject-118" d="M99.2,439.24c83.28,46.09,218.32,46.09,301.6,0s83.29-120.81,0-166.89-218.32-46.09-301.6,0S15.91,393.15,99.2,439.24Z" style="fill:#f5f5f5"></path></g><g id="freepik--connected-people--inject-118"><path d="M428.6,248.85l-8.89-5.15h0l-.13-.09,0,0c-6.67-3.76-15.81-3.21-25.94,2.64-9.48,5.46-18.12,14.58-24.64,25.13-7.53,12.14-12.27,26.2-12.27,38.81,0,11.75,4.11,20,10.77,23.87h0l0,0,9.09,5.19c6.73,4.28,16.23,3.9,26.76-2.18,20.39-11.77,36.92-40.4,36.92-63.94C440.26,260.94,435.77,252.49,428.6,248.85Z" style="fill:#37474f"></path><path d="M376.32,339.16l-8.83-5.05h0c-6.66-3.86-10.77-12.12-10.77-23.88,0-12.6,4.74-26.65,12.27-38.8l9.72,5.63c-7.53,12.14-12.25,26.18-12.25,38.77C366.42,327.05,370.18,335.09,376.32,339.16Z" style="fill:#263238"></path><path d="M428.32,248.7c-6.57-3.19-15.34-2.38-25,3.17-9.49,5.49-18.14,14.61-24.67,25.17L369,271.41c6.52-10.55,15.17-19.66,24.64-25.12,10.12-5.85,19.27-6.41,25.94-2.65l0,0,.14.09h0Z" style="fill:#455a64"></path><path d="M388.38,333.56a12.7,12.7,0,0,1-7-1.91l-.12-.08-.19-.1c-4.48-3.08-6.92-9.29-6.92-17.53,0-10.26,3.85-22.35,10.56-33.17,5.83-9.42,13.29-17.07,21-21.55,4.55-2.61,9-4,12.84-4a13.32,13.32,0,0,1,5.72,1.21l.27.15c5.22,2.64,8.2,9.3,8.2,18.27,0,20.1-14.17,44.64-31.58,54.7C396.67,332.17,392.23,333.56,388.38,333.56Z" style="fill:#fafafa"></path><g style="clip-path:url(#freepik--clip-path--inject-118)"><path d="M430.59,319.39c2.06,2.06,4.25,4.33,6,4.31,2.67,0,11.42-17.64,12.76-19.57,1.56-2.23,3-3.94,3.58-6.73a8.6,8.6,0,0,0-1.2-6.57c-1.21-1.58-3.16-1.74-3.63.26a26.85,26.85,0,0,1-1.86,5.7c-.13-.57-1-2.71-2.17-3.2s-1.46.4-1,1.73.47,4.19,1,5.71c.22.69-9.49,12.43-9.49,12.43Z" style="fill:#fafafa"></path><polygon points="441.68 304.07 442.7 302.8 447.97 307.18 446.42 309.83 441.68 304.07" style="fill:#fafafa"></polygon><path d="M414.22,295.32c4.3.29,5.55.87,8.43,4.05,2.55,2.81,11.47,13.84,12.29,15.38s-2.89,6-2.89,6L416.59,306.3Z" style="fill:#fafafa"></path><path d="M447.32,308.75l-5.46-5.23-6.66,8.31s-7-7.56-11.38-12.07-6.39-5.12-10.19-5.2l5.63,16.52s11.95,10.79,14.36,12.2,3,1.83,4.31.91h0C439.26,323.28,447.32,308.75,447.32,308.75Z" style="fill:#fafafa"></path><polygon points="389.86 424.1 395.82 423.57 395.82 413.37 389.86 413.9 389.86 424.1" style="fill:#fafafa"></polygon><polygon points="414.23 414.21 420.19 413.89 420.49 403.07 414.23 403.42 414.23 414.21" style="fill:#fafafa"></polygon><path d="M390.7,341c0,5.69-.39,38.8-.39,38.8-.14,1.65-1.72,4.7-1.84,10.61-.18,8.57,1.14,28.59,1.14,28.59a7.75,7.75,0,0,0,6.63-.45s4.68-28.91,5.75-37.47c.93-7.47,4.6-25,4.6-25l4.1,22.11a34.66,34.66,0,0,0-.74,9.53c.28,3.89,3.91,23.18,3.91,23.18s2.8,1.66,6.88-.08c0,0,.35-30.82.42-34.42.08-4.1-1.71-39.17-1.71-39.17Z" style="fill:#fafafa"></path><path d="M395.82,420.63v-.85c.32,0,.52.27.64,1,.09.54.17.95.35,1.66a18.46,18.46,0,0,0,1,3c.84,2,1.55,2.71,3.48,5a19.09,19.09,0,0,1,1.85,2c.36.6.49,2.38-.13,2.84a10.74,10.74,0,0,1-8.08,1.55,4.34,4.34,0,0,1-3.51-3.63c-.08-.54,0-1.11-.12-1.65a7.06,7.06,0,0,0-1.49-3.33,9.79,9.79,0,0,1-1.14-1.78c-.5-1.18-.1-2.6.22-3.85.27-1.07.57-2.26.93-2.19V421a4.39,4.39,0,0,0,3,.74C393.71,421.66,395.83,421.3,395.82,420.63Z" style="fill:#fafafa"></path><path d="M420.25,412.05c.31,0,.56.39,1.24,1.07a11.65,11.65,0,0,0,3.51,2.21c2.23.92,6.57,2.25,8.53,3,1.23.45,1.17,1.93-.1,2.89s-4.33,1.83-8,1.34c-2-.27-4.61-1.89-6.26-1.64s-4.73.49-5.95-.24-.73-2.56-.39-4.13.85-4.38,1.4-4.32v.58c.72,1,4.42,1.14,6,.2Z" style="fill:#fafafa"></path><path d="M406.14,353.62a24.64,24.64,0,0,0,8.29-5.49s-1.6,3.14-6.36,6.35l2.3,22Z" style="fill:#fafafa"></path><path d="M401,296.45c-2,.67-6.11,1.7-7,5.82-1.1,5-1.46,15.54-1.46,15.54l-.37,23.54c4.1,2.62,19.17,2.91,27.81-4.17,0,0-1.06-28.12-1.06-32.51s-2.44-9.46-9.18-9.25Z" style="fill:#fafafa"></path><path d="M409.64,295a10.69,10.69,0,0,1,3.85,5.62c.82,3.48,1,43.16,1,43.16s4.21-1.16,6.18-2.88c0,0-.25-31.31-.65-36.45-.61-7.8-.55-10.07-10.33-10Z" style="fill:#fafafa"></path><path d="M399.26,295.31s5.61,3,5.67,16.7c.06,11.88.46,32.54.46,32.54s-9.3,2.19-15.19-.8c0,0-.7-28.76-.59-33.23.13-5.12.92-13.15,2.56-13.95Z" style="fill:#fafafa"></path><path d="M378.61,329.09c4.54-23.57,6.62-29.23,14-31.72.64,2.46-.71,12.75-1.15,13.85,0,0-4.95,15.67-5.82,21.06C384.87,337,384,343,384.3,347a3,3,0,0,0,.89,1.88c1.37,1.34,1.43,2.48,2.35,4,.72,1.19,1.46,1.61,1.27,1.89a1.58,1.58,0,0,1-2.13.27,8.51,8.51,0,0,1-1.69-1.47,16.18,16.18,0,0,0,1.5,4.25c1.62,3.22,1.35,4.92-3.16,4-2.82-.6-4.69-2.83-5.44-9.51a52.28,52.28,0,0,1-.44-7.41C377.73,338.49,377.88,332.89,378.61,329.09Z" style="fill:#fafafa"></path><path d="M377.28,342.68l-.18,3s5.19.89,7.49,0c0-.18,0-2.61,0-2.61Z" style="fill:#fafafa"></path><path d="M393.26,296.38s1.27,9.88-1.66,16.53c-1.83,4.45-4,13.38-5.22,20.31a104.28,104.28,0,0,0-1.47,11.43s-5.68,0-8.14-.9c0,0,.75-14.56,2.76-24.52C382.36,305.2,385.1,297,393.26,296.38Z" style="fill:#fafafa"></path><polygon points="398.63 302.88 401.2 305.84 399.91 309.58 403.29 317.94 399.22 309.64 400.64 306.09 398.63 302.88" style="fill:#fafafa"></polygon><polygon points="416.76 300.25 416.21 303.59 418.43 306.29 415.34 316.32 417.73 306.46 415.68 303.93 416.76 300.25" style="fill:#fafafa"></polygon><ellipse cx="410.67" cy="276.01" rx="8.56" ry="7.83" transform="translate(-72.66 381.97) rotate(-46.27)" style="fill:#fafafa"></ellipse><path d="M396.52,283.09a66.44,66.44,0,0,0,1.86,7.09,2.49,2.49,0,0,0,1.63,1.17l-.09-4.37Z" style="fill:#fafafa"></path><path d="M398.18,274a3.3,3.3,0,0,0-2.54,1.12c-1.09,1.22-.48,4.66.88,8l2.5.06Z" style="fill:#fafafa"></path><path d="M399.77,283.09c-.5.34-1.22-.56-1.84-1.15a2.24,2.24,0,0,0-3.64.92c-1,2.25.89,4.93,2.48,5.29,2.74.62,3.15-1.17,3.15-1.17l.2,10.15h0c1.89,2.26,6.14,4.74,8.43,4.13,1.83-.49,2.23-3.61.48-5.48v-3a17.31,17.31,0,0,0,3.69-.13c2-.49,3.28-2.19,3.89-4.43,1-3.59,1.36-6.44.53-13.25-.92-7.47-9.69-6.77-14.43-3.36S399.77,283.09,399.77,283.09Z" style="fill:#fafafa"></path><path d="M399.77,283.93c-.25,0-1.21-1.47-1.84-2-.86-.71.25-7.93.25-7.93a3.52,3.52,0,0,1,.6-3.9c1.18-1.41,2.84-3.14,8.21-3,3.83.12,8,.94,11.37-1a6.14,6.14,0,0,1-2,6.26,12.36,12.36,0,0,1-4.43,1.57,46.51,46.51,0,0,1-8.88.62c-.93,0-1.13.88-1.63,3.39C401,280.15,400.62,283.84,399.77,283.93Z" style="fill:#fafafa"></path><path d="M398.19,274.56l-3-1.35a1.79,1.79,0,0,1,2.29-1A1.7,1.7,0,0,1,398.19,274.56Z" style="fill:#fafafa"></path><path d="M409,292.77a32,32,0,0,1-6.06-1.2,4.49,4.49,0,0,1-2.17-1.95A6.37,6.37,0,0,0,402,292c1.15,1.37,7,1.93,7,1.93Z" style="fill:#fafafa"></path><path d="M407.94,281.24a1,1,0,0,1-.9,1,.83.83,0,0,1-.9-.85,1,1,0,0,1,.9-1A.83.83,0,0,1,407.94,281.24Z" style="fill:#fafafa"></path><path d="M407,277.93l-1.93,1.23a1.23,1.23,0,0,1,.45-1.57A1,1,0,0,1,407,277.93Z" style="fill:#fafafa"></path><path d="M408.62,287.4l2.05.59a1.18,1.18,0,0,1-1.39.81A1.06,1.06,0,0,1,408.62,287.4Z" style="fill:#fafafa"></path><path d="M416,277.88l-1.75-1.2a1.11,1.11,0,0,1,1.53-.37A1.13,1.13,0,0,1,416,277.88Z" style="fill:#fafafa"></path><path d="M415.43,280.32a1,1,0,0,1-.9,1,.83.83,0,0,1-.9-.86,1,1,0,0,1,.9-1A.83.83,0,0,1,415.43,280.32Z" style="fill:#fafafa"></path><polygon points="410.85 279.87 411.14 285.26 413.97 284.05 410.85 279.87" style="fill:#fafafa"></polygon><path d="M411.82,300.34c-.55,1.37-1.57,2-3.42,2.36a6.4,6.4,0,0,1-5.11-1.32l2.3-2.49,2.92,1.93.24-2.47Z" style="fill:#fafafa"></path><path d="M410.38,299.76a5.92,5.92,0,0,1,.3,2.43,4.59,4.59,0,0,1-.82,2.12,2.36,2.36,0,0,1-2,.39,4.91,4.91,0,0,1-1.89-3.94l2.53.06Z" style="fill:#fafafa"></path><path d="M409.86,304.31s3,16.24,3.11,17.56-1.72,6.22-2.86,6.36-3.38-3.94-3.41-5.15,1.17-18.38,1.17-18.38Z" style="fill:#fafafa"></path><path d="M407.87,304.7a2,2,0,0,0,2-.39l.05.26a2.45,2.45,0,0,1-2.07.59Z" style="fill:#fafafa"></path><path d="M408.51,300.82l-8.43-5.67,0-1.9s-2,.92-2.4,4.41a13.08,13.08,0,0,0,6.57,6.41l1.77-3.31Z" style="fill:#fafafa"></path><path d="M409,293.33a3.78,3.78,0,0,1,2.72,1.43c.85,1.31.65,6.65.65,6.65l-2-1.65-1.87,1.06c.18-1.79.52-5,.52-5Z" style="fill:#fafafa"></path></g><g style="clip-path:url(#freepik--clip-path-2--inject-118)"><g id="freepik--Character--inject-118"><path d="M406.14,293.45l-1.15.1a11.06,11.06,0,0,1-12.27-11.2h0a13.13,13.13,0,0,1,11.79-12.83l2.1-.18a10.64,10.64,0,0,1,11.8,10.76h0A13.67,13.67,0,0,1,406.14,293.45Z" style="fill:#263238"></path><path d="M387,300h0a8.78,8.78,0,0,0,7.88-8.57V277h0a8.78,8.78,0,0,0-7.88,8.57Z" style="fill:#263238"></path><path d="M429.92,339.26a55,55,0,0,0,5.4,5c5.27,3.75,8.18,3.75,10.61,2,3.87-2.86,2.86-4.17-.58-5a13.38,13.38,0,0,1-4.2-1.8,11.4,11.4,0,0,0,2.63-.41,1.77,1.77,0,0,0,1.33-1.82c-.07-.33-.89,0-2.25-.24a16.14,16.14,0,0,0-4.77-.52,2.88,2.88,0,0,1-1.89-.8c-.75-.53-9.73-12.25-11.48-14.73,0,0-1.56-5.87-3-11.16s-3.68-14-11.26-12.75c-3.37,3.48-.9,8.47,6.25,25.73C418,325.8,426.47,335.83,429.92,339.26Z" style="fill:#ffa8a7"></path><path d="M401.16,298.1h0c-5.74.9-6.15,3.71-7.58,6.87a9.92,9.92,0,0,0,.1,7.46l3.63,11.18s-1.88,4.69-4.05,9.16c10,4.73,22.57.68,25.59-3.67.13-.88-.64-7.59-1.12-12,1.77-4.59,2.23-7.44,1.49-10.31-1.39-5.32-6.76-10.15-9.14-9.75Z" style="fill:#ebebeb"></path><path d="M393.8,272l1.74,2.64a1.54,1.54,0,0,1-2.26-.27A1.8,1.8,0,0,1,393.8,272Z" style="fill:#263238"></path><path d="M414.19,273.87c1.36.68,3,3.95,2.87,11.12-.14,6.08-2.11,7.75-3.09,8.26s-2.89.43-4.74.28v3.64s2.55,2.75,2.39,4.43-3.69,2.39-6.08,1a13.55,13.55,0,0,1-3.93-3.76V290a2.44,2.44,0,0,1-3.3.6c-2-1.18-2.12-4.53-.93-5.84s3.75-1.15,4.23.47a15.71,15.71,0,0,0,6.88-2.65A12.37,12.37,0,0,0,414.19,273.87Z" style="fill:#ffa8a7"></path><path d="M409.61,284.12a.87.87,0,0,1-.72.89.71.71,0,0,1-.8-.69.86.86,0,0,1,.72-.89A.71.71,0,0,1,409.61,284.12Z" style="fill:#263238"></path><path d="M410.49,289.18l1.77.41a1,1,0,0,1-1.15.74A.9.9,0,0,1,410.49,289.18Z" style="fill:#f28f8f"></path><path d="M415.86,281.23l-1.54-.94a.91.91,0,1,1,1.54.94Z" style="fill:#263238"></path><path d="M415.51,283.05a.87.87,0,0,1-.73.89.7.7,0,0,1-.8-.68.87.87,0,0,1,.72-.9A.72.72,0,0,1,415.51,283.05Z" style="fill:#263238"></path><polygon points="411.78 282.94 411.9 287.52 414.32 286.56 411.78 282.94" style="fill:#f28f8f"></polygon><path d="M409.23,293.53c-2-.09-6-.89-6.59-2.42A3.67,3.67,0,0,0,404,293c1.2.92,5.19,1.73,5.19,1.73Z" style="fill:#f28f8f"></path><path d="M403.73,332.94c-2.74-.41-5.51-3.15-4.26-6.18a4.77,4.77,0,0,1,1.75-2.1,1.54,1.54,0,0,1,1.82,0c-1.3-.75-3.57-4.74-3.88-6.25l-1.55-5a8.65,8.65,0,0,1,.31-3.55l-4-4.31-.75.58a10.17,10.17,0,0,0,.54,6.28l3.63,11.18s-1.88,4.69-4.05,9.16c7.4,3.48,16.15,2.2,21.45-.45A29.32,29.32,0,0,1,403.73,332.94Z" style="fill:#e0e0e0"></path><path d="M384.7,344.17a60.77,60.77,0,0,0,1,7.54c1.69,6.38,3.86,8.15,6.75,8.09,4.61-.1,4.64-1.82,2.57-4.61a13.31,13.31,0,0,1-2.06-4.07,10.29,10.29,0,0,0,2.22,1.24,1.7,1.7,0,0,0,2.07-.75c.15-.32-.64-.57-1.53-1.57-1.13-1.27-1.7-2.32-3.26-3.32a3,3,0,0,1-.93-1.83c-.23-.91.08-16.33.26-19.49l4.45-11.34c3.23-2.5,5.84-10.16,2.72-15.45-4.6.92-9.23,4.45-14.25,23.48C383.84,325.46,384.18,339.15,384.7,344.17Z" style="fill:#ffa8a7"></path></g></g><path d="M363.12,302.38a2.35,2.35,0,0,1-.69-.1l-65.62-18.47a2.55,2.55,0,0,1,1.38-4.91l65.62,18.47a2.55,2.55,0,0,1-.69,5Z" style="fill:#e0e0e0"></path><path d="M399.77,250.21a2.55,2.55,0,0,1-2.55-2.55V183.77a2.55,2.55,0,1,1,5.1,0v63.89A2.55,2.55,0,0,1,399.77,250.21Z" style="fill:#e0e0e0"></path><path d="M416.11,116l-7.61-4.41h0l-.12-.07v0c-5.71-3.22-13.54-2.75-22.22,2.26C378,118.43,370.6,126.24,365,135.28c-6.45,10.4-10.51,22.45-10.51,33.24,0,10.07,3.52,17.14,9.23,20.45h0l0,0,7.79,4.44c5.76,3.67,13.9,3.35,22.92-1.86,17.47-10.09,31.63-34.61,31.63-54.77C426.1,126.31,422.25,119.07,416.11,116Z" style="fill:#FF3366"></path><path d="M371.32,193.31,363.76,189h0c-5.7-3.31-9.22-10.38-9.22-20.45,0-10.8,4.06-22.84,10.51-33.24l8.33,4.82c-6.45,10.4-10.5,22.43-10.5,33.22C362.84,182.94,366.06,189.83,371.32,193.31Z" style="opacity:0.1"></path><path d="M415.87,115.82c-5.63-2.73-13.14-2-21.4,2.72s-15.53,12.52-21.13,21.56L365,135.28c5.59-9,13-16.85,21.11-21.52,8.67-5,16.51-5.49,22.22-2.27l0,0,.12.07h0Z" style="fill:#fff;opacity:0.4"></path><path d="M381.66,188.52a10.91,10.91,0,0,1-6-1.64l-.1-.06-.16-.1c-3.83-2.63-5.93-7.95-5.93-15,0-8.79,3.3-19.14,9-28.41,5-8.07,11.39-14.62,18-18.46a22.77,22.77,0,0,1,11-3.43,11.41,11.41,0,0,1,4.89,1l.24.13c4.46,2.26,7,8,7,15.65,0,17.23-12.14,38.25-27.06,46.86A22.62,22.62,0,0,1,381.66,188.52Z" style="fill:#fafafa"></path><g style="clip-path:url(#freepik--clip-path-3--inject-118)"><path d="M417.81,176.38c1.77,1.77,3.65,3.71,5.15,3.69,2.28,0,9.78-15.11,10.93-16.76,1.33-1.92,2.54-3.38,3.07-5.77a7.36,7.36,0,0,0-1-5.62c-1-1.36-2.7-1.5-3.11.22a22.91,22.91,0,0,1-1.59,4.88c-.11-.49-.87-2.32-1.86-2.74s-1.25.34-.84,1.48.41,3.59.82,4.89c.18.6-8.14,10.65-8.14,10.65Z" style="fill:#fafafa"></path><polygon points="427.31 163.26 428.19 162.17 432.7 165.92 431.37 168.19 427.31 163.26" style="fill:#fafafa"></polygon><path d="M403.79,155.76c3.69.25,4.76.74,7.22,3.47,2.19,2.41,9.83,11.86,10.53,13.18s-2.47,5.14-2.47,5.14l-13.25-12.39Z" style="fill:#fafafa"></path><path d="M432.14,167.27l-4.67-4.48-5.71,7.11s-6-6.47-9.74-10.34-5.48-4.38-8.73-4.45l4.82,14.15s10.24,9.24,12.3,10.45,2.56,1.57,3.7.78h0C425.24,179.71,432.14,167.27,432.14,167.27Z" style="fill:#fafafa"></path><polygon points="382.93 266.08 388.03 265.63 388.03 256.89 382.93 257.34 382.93 266.08" style="fill:#fafafa"></polygon><polygon points="403.8 257.61 408.9 257.33 409.16 248.06 403.8 248.36 403.8 257.61" style="fill:#fafafa"></polygon><path d="M383.64,194.91c0,4.87-.33,33.24-.33,33.24-.12,1.41-1.47,4-1.57,9.08-.16,7.34,1,24.5,1,24.5a6.65,6.65,0,0,0,5.68-.39s4-24.77,4.93-32.1c.79-6.4,3.94-21.43,3.94-21.43l3.51,18.94a29.76,29.76,0,0,0-.63,8.17c.23,3.33,3.34,19.85,3.34,19.85a6.79,6.79,0,0,0,5.89-.07s.31-26.4.37-29.48c.06-3.51-1.47-33.56-1.47-33.56Z" style="fill:#fafafa"></path><path d="M388,263.11v-.73c.27,0,.44.22.55.87a12.23,12.23,0,0,0,.3,1.42,15.46,15.46,0,0,0,.89,2.53c.72,1.72,1.33,2.32,3,4.25a16.74,16.74,0,0,1,1.58,1.69c.31.52.42,2-.1,2.44a9.2,9.2,0,0,1-6.93,1.32,3.7,3.7,0,0,1-3-3.11c-.08-.46-.05-.94-.1-1.41a6.21,6.21,0,0,0-1.28-2.85,8,8,0,0,1-1-1.53,5.26,5.26,0,0,1,.19-3.29c.23-.92.49-1.94.8-1.88v.56a3.78,3.78,0,0,0,2.55.63C386.23,264,388,263.67,388,263.11Z" style="fill:#fafafa"></path><path d="M409,255.75c.26,0,.48.34,1.06.92a10,10,0,0,0,3,1.9c1.91.78,5.62,1.92,7.3,2.53,1.05.38,1,1.66-.08,2.47s-3.71,1.58-6.86,1.15c-1.71-.23-3.94-1.62-5.36-1.4s-4,.42-5.1-.2-.62-2.2-.33-3.55.73-3.75,1.2-3.69v.49c.62.88,3.78,1,5.13.17Z" style="fill:#fafafa"></path><path d="M396.87,205.7A21.13,21.13,0,0,0,404,201a16.72,16.72,0,0,1-5.45,5.44l2,18.85Z" style="fill:#fafafa"></path><path d="M392.49,156.73c-1.73.57-5.23,1.45-6,5-.94,4.24-1.25,13.32-1.25,13.32l-.32,20.16c3.52,2.25,16.42,2.49,23.82-3.57,0,0-.9-24.09-.9-27.85s-2.09-8.1-7.87-7.92Z" style="fill:#fafafa"></path><path d="M399.87,155.46a9.12,9.12,0,0,1,3.3,4.81c.7,3,.82,37,.82,37s3.6-1,5.29-2.46c0,0-.21-26.82-.56-31.22-.52-6.69-.46-8.63-8.84-8.6Z" style="fill:#fafafa"></path><path d="M391,155.75s4.81,2.54,4.87,14.31c0,10.17.38,27.87.38,27.87s-8,1.88-13-.69c0,0-.6-24.63-.5-28.46.11-4.39.79-11.27,2.19-11.95Z" style="fill:#fafafa"></path><path d="M373.29,184.69c3.89-20.19,5.67-25,12-27.18.55,2.11-.61,10.93-1,11.87,0,0-4.24,13.42-5,18-.65,4.06-1.37,9.17-1.14,12.62a2.54,2.54,0,0,0,.76,1.61c1.18,1.15,1.23,2.12,2,3.42.61,1,1.25,1.38,1.09,1.62a1.37,1.37,0,0,1-1.83.23,6.76,6.76,0,0,1-1.45-1.27A14.09,14.09,0,0,0,380,209.3c1.4,2.76,1.16,4.22-2.7,3.4-2.42-.51-4-2.43-4.66-8.14a45.45,45.45,0,0,1-.38-6.35C372.53,192.74,372.66,187.94,373.29,184.69Z" style="fill:#fafafa"></path><path d="M372.15,196.33l-.16,2.56s4.45.76,6.42,0c0-.16,0-2.24,0-2.24Z" style="fill:#fafafa"></path><path d="M385.84,156.66s1.09,8.47-1.42,14.17c-1.57,3.81-3.43,11.46-4.48,17.4a88.51,88.51,0,0,0-1.25,9.78s-4.87,0-7-.77a179,179,0,0,1,2.37-21C376.5,164.23,378.85,157.23,385.84,156.66Z" style="fill:#fafafa"></path><polygon points="390.43 162.24 392.64 164.77 391.54 167.97 394.43 175.14 390.94 168.03 392.16 164.99 390.43 162.24" style="fill:#fafafa"></polygon><polygon points="405.97 159.98 405.49 162.84 407.4 165.16 404.75 173.75 406.8 165.3 405.04 163.14 405.97 159.98" style="fill:#fafafa"></polygon><ellipse cx="400.75" cy="139.22" rx="7.33" ry="6.71" transform="translate(23.14 332.59) rotate(-46.27)" style="fill:#fafafa"></ellipse><path d="M388.63,145.28a58.4,58.4,0,0,0,1.59,6.08,2.14,2.14,0,0,0,1.4,1l-.08-3.75Z" style="fill:#fafafa"></path><path d="M390.06,137.51a2.84,2.84,0,0,0-2.18,1c-.94,1-.42,4,.75,6.81l2.14.06Z" style="fill:#fafafa"></path><path d="M391.41,145.28c-.43.3-1-.47-1.57-1a1.92,1.92,0,0,0-3.12.78,3.58,3.58,0,0,0,2.12,4.54c2.35.53,2.7-1,2.7-1l.17,8.7h0c1.62,1.94,5.27,4.06,7.23,3.54,1.56-.42,1.9-3.1.41-4.7v-2.57a14.9,14.9,0,0,0,3.16-.12c1.73-.42,2.81-1.88,3.33-3.79.84-3.07,1.16-5.52.45-11.35-.78-6.4-8.3-5.8-12.36-2.88S391.41,145.28,391.41,145.28Z" style="fill:#fafafa"></path><path d="M391.41,146c-.21,0-1-1.27-1.57-1.71-.74-.61.22-6.79.22-6.79a3,3,0,0,1,.51-3.34c1-1.21,2.42-2.7,7-2.56,3.28.09,6.85.8,9.74-.87a5.24,5.24,0,0,1-1.72,5.36,10.59,10.59,0,0,1-3.79,1.35,40.39,40.39,0,0,1-7.61.53c-.79,0-1,.75-1.39,2.9C392.45,142.76,392.14,145.93,391.41,146Z" style="fill:#fafafa"></path><path d="M390.06,138l-2.6-1.16a1.54,1.54,0,0,1,2-.83A1.45,1.45,0,0,1,390.06,138Z" style="fill:#fafafa"></path><path d="M399.34,153.58a27.38,27.38,0,0,1-5.19-1,3.83,3.83,0,0,1-1.86-1.67,5.51,5.51,0,0,0,1,2.07c1,1.17,6,1.65,6,1.65Z" style="fill:#fafafa"></path><path d="M398.42,143.7a.89.89,0,0,1-.78.87.72.72,0,0,1-.77-.74.88.88,0,0,1,.77-.87A.72.72,0,0,1,398.42,143.7Z" style="fill:#fafafa"></path><path d="M397.6,140.86,396,141.92a1,1,0,0,1,.38-1.35A.88.88,0,0,1,397.6,140.86Z" style="fill:#fafafa"></path><path d="M399,149l1.76.5a1,1,0,0,1-1.19.69A.91.91,0,0,1,399,149Z" style="fill:#fafafa"></path><path d="M405.29,140.82l-1.5-1a.94.94,0,0,1,1.31-.31A1,1,0,0,1,405.29,140.82Z" style="fill:#fafafa"></path><path d="M404.83,142.91a.88.88,0,0,1-.77.87.72.72,0,0,1-.77-.74.88.88,0,0,1,.77-.87A.72.72,0,0,1,404.83,142.91Z" style="fill:#fafafa"></path><polygon points="400.9 142.53 401.15 147.14 403.58 146.1 400.9 142.53" style="fill:#fafafa"></polygon><path d="M401.74,160.06c-.47,1.17-1.35,1.71-2.93,2a5.47,5.47,0,0,1-4.38-1.13l2-2.14,2.5,1.66.21-2.11Z" style="fill:#fafafa"></path><path d="M400.5,159.56a5,5,0,0,1,.26,2.08,4,4,0,0,1-.7,1.82,2,2,0,0,1-1.71.34,4.23,4.23,0,0,1-1.61-3.38l2.16.05Z" style="fill:#fafafa"></path><path d="M400.06,163.46s2.56,13.91,2.66,15-1.47,5.33-2.45,5.45-2.89-3.38-2.92-4.41,1-15.74,1-15.74Z" style="fill:#fafafa"></path><path d="M398.35,163.8a1.77,1.77,0,0,0,1.71-.34l0,.22a2.11,2.11,0,0,1-1.77.51Z" style="fill:#fafafa"></path><path d="M398.9,160.47l-7.22-4.85,0-1.63s-1.68.78-2.06,3.78a11.2,11.2,0,0,0,5.63,5.49l1.52-2.84Z" style="fill:#fafafa"></path><path d="M399.34,154.05a3.26,3.26,0,0,1,2.33,1.23c.72,1.13.56,5.7.56,5.7l-1.73-1.42-1.6.91c.15-1.53.45-4.32.45-4.32Z" style="fill:#fafafa"></path></g><g style="clip-path:url(#freepik--clip-path-4--inject-118)"><path d="M417.81,176.38c1.77,1.77,3.65,3.71,5.15,3.69,2.28,0,9.78-15.11,10.93-16.76,1.33-1.92,2.54-3.38,3.07-5.77a7.36,7.36,0,0,0-1-5.62c-1-1.36-2.7-1.5-3.11.22a22.91,22.91,0,0,1-1.59,4.88c-.11-.49-.87-2.32-1.86-2.74s-1.25.34-.84,1.48.41,3.59.82,4.89c.18.6-8.14,10.65-8.14,10.65Z" style="fill:#ffa8a7"></path><polygon points="427.31 163.26 428.19 162.17 432.7 165.92 431.37 168.19 427.31 163.26" style="fill:#f5f5f5"></polygon><path d="M403.79,155.76c3.69.25,4.76.74,7.22,3.47,2.19,2.41,9.83,11.86,10.53,13.18s-2.47,5.14-2.47,5.14l-13.25-12.39Z" style="fill:#ffa8a7"></path><path d="M432.14,167.27l-4.67-4.48-5.71,7.11s-6-6.47-9.74-10.34-5.48-4.38-8.73-4.45l4.82,14.15s10.24,9.24,12.3,10.45,2.56,1.57,3.7.78h0C425.24,179.71,432.14,167.27,432.14,167.27Z" style="fill:#37474f"></path><path d="M392.49,156.73c-1.73.57-5.23,1.45-6,5-.94,4.24-1.25,13.32-1.25,13.32l-.32,20.16c3.52,2.25,16.42,2.49,23.82-3.57,0,0-.9-24.09-.9-27.85s-2.09-8.1-7.87-7.92Z" style="fill:#f5f5f5"></path><path d="M399.87,155.46a9.12,9.12,0,0,1,3.3,4.81c.7,3,.82,37,.82,37s3.6-1,5.29-2.46c0,0-.21-26.82-.56-31.22-.52-6.69-.46-8.63-8.84-8.6Z" style="fill:#455a64"></path><path d="M391,155.75s4.81,2.54,4.87,14.31c0,10.17.38,27.87.38,27.87s-8,1.88-13-.69c0,0-.6-24.63-.5-28.46.11-4.39.79-11.27,2.19-11.95Z" style="fill:#455a64"></path><path d="M373.29,184.69c3.89-20.19,5.67-25,12-27.18.55,2.11-.61,10.93-1,11.87,0,0-4.24,13.42-5,18-.65,4.06-1.37,9.17-1.14,12.62a2.54,2.54,0,0,0,.76,1.61c1.18,1.15,1.23,2.12,2,3.42.61,1,1.25,1.38,1.09,1.62a1.37,1.37,0,0,1-1.83.23,6.76,6.76,0,0,1-1.45-1.27A14.09,14.09,0,0,0,380,209.3c1.4,2.76,1.16,4.22-2.7,3.4-2.42-.51-4-2.43-4.66-8.14a45.45,45.45,0,0,1-.38-6.35C372.53,192.74,372.66,187.94,373.29,184.69Z" style="fill:#ffa8a7"></path><path d="M372.15,196.33l-.16,2.56s4.45.76,6.42,0c0-.16,0-2.24,0-2.24Z" style="fill:#f5f5f5"></path><path d="M385.84,156.66s1.09,8.47-1.42,14.17c-1.57,3.81-3.43,11.46-4.48,17.4a88.51,88.51,0,0,0-1.25,9.78s-4.87,0-7-.77a179,179,0,0,1,2.37-21C376.5,164.23,378.85,157.23,385.84,156.66Z" style="fill:#37474f"></path><polygon points="390.43 162.24 392.64 164.77 391.54 167.97 394.43 175.14 390.94 168.03 392.16 164.99 390.43 162.24" style="fill:#37474f"></polygon><polygon points="405.97 159.98 405.49 162.84 407.4 165.16 404.75 173.75 406.8 165.3 405.04 163.14 405.97 159.98" style="fill:#37474f"></polygon><ellipse cx="400.75" cy="139.22" rx="7.33" ry="6.71" transform="translate(23.14 332.59) rotate(-46.27)" style="fill:#263238"></ellipse><path d="M388.63,145.28a58.4,58.4,0,0,0,1.59,6.08,2.14,2.14,0,0,0,1.4,1l-.08-3.75Z" style="fill:#263238"></path><path d="M390.06,137.51a2.84,2.84,0,0,0-2.18,1c-.94,1-.42,4,.75,6.81l2.14.06Z" style="fill:#263238"></path><path d="M391.41,145.28c-.43.3-1-.47-1.57-1a1.92,1.92,0,0,0-3.12.78,3.58,3.58,0,0,0,2.12,4.54c2.35.53,2.7-1,2.7-1l.17,8.7h0c1.62,1.94,5.27,4.06,7.23,3.54,1.56-.42,1.9-3.1.41-4.7v-2.57a14.9,14.9,0,0,0,3.16-.12c1.73-.42,2.81-1.88,3.33-3.79.84-3.07,1.16-5.52.45-11.35-.78-6.4-8.3-5.8-12.36-2.88S391.41,145.28,391.41,145.28Z" style="fill:#ffa8a7"></path><path d="M391.41,146c-.21,0-1-1.27-1.57-1.71-.74-.61.22-6.79.22-6.79a3,3,0,0,1,.51-3.34c1-1.21,2.42-2.7,7-2.56,3.28.09,6.85.8,9.74-.87a5.24,5.24,0,0,1-1.72,5.36,10.59,10.59,0,0,1-3.79,1.35,40.39,40.39,0,0,1-7.61.53c-.79,0-1,.75-1.39,2.9C392.45,142.76,392.14,145.93,391.41,146Z" style="fill:#263238"></path><path d="M390.06,138l-2.6-1.16a1.54,1.54,0,0,1,2-.83A1.45,1.45,0,0,1,390.06,138Z" style="fill:#263238"></path><path d="M399.34,153.58a27.38,27.38,0,0,1-5.19-1,3.83,3.83,0,0,1-1.86-1.67,5.51,5.51,0,0,0,1,2.07c1,1.17,6,1.65,6,1.65Z" style="fill:#f28f8f"></path><path d="M398.42,143.7a.89.89,0,0,1-.78.87.72.72,0,0,1-.77-.74.88.88,0,0,1,.77-.87A.72.72,0,0,1,398.42,143.7Z" style="fill:#263238"></path><path d="M397.6,140.86,396,141.92a1,1,0,0,1,.38-1.35A.88.88,0,0,1,397.6,140.86Z" style="fill:#263238"></path><path d="M399,149l1.76.5a1,1,0,0,1-1.19.69A.91.91,0,0,1,399,149Z" style="fill:#f28f8f"></path><path d="M405.29,140.82l-1.5-1a.94.94,0,0,1,1.31-.31A1,1,0,0,1,405.29,140.82Z" style="fill:#263238"></path><path d="M404.83,142.91a.88.88,0,0,1-.77.87.72.72,0,0,1-.77-.74.88.88,0,0,1,.77-.87A.72.72,0,0,1,404.83,142.91Z" style="fill:#263238"></path><polygon points="400.9 142.53 401.15 147.14 403.58 146.1 400.9 142.53" style="fill:#f28f8f"></polygon><path d="M401.74,160.06c-.47,1.17-1.35,1.71-2.93,2a5.47,5.47,0,0,1-4.38-1.13l2-2.14,2.5,1.66.21-2.11Z" style="fill:#37474f"></path><path d="M400.5,159.56a5,5,0,0,1,.26,2.08,4,4,0,0,1-.7,1.82,2,2,0,0,1-1.71.34,4.23,4.23,0,0,1-1.61-3.38l2.16.05Z" style="fill:#455a64"></path><path d="M400.06,163.46s2.56,13.91,2.66,15-1.47,5.33-2.45,5.45-2.89-3.38-2.92-4.41,1-15.74,1-15.74Z" style="fill:#455a64"></path><path d="M398.35,163.8a1.77,1.77,0,0,0,1.71-.34l0,.22a2.11,2.11,0,0,1-1.77.51Z" style="fill:#37474f"></path><path d="M398.9,160.47l-7.22-4.85,0-1.63s-1.68.78-2.06,3.78a11.2,11.2,0,0,0,5.63,5.49l1.52-2.84Z" style="fill:#e0e0e0"></path><path d="M399.34,154.05a3.26,3.26,0,0,1,2.33,1.23c.72,1.13.56,5.7.56,5.7l-1.73-1.42-1.6.91c.15-1.53.45-4.32.45-4.32Z" style="fill:#e0e0e0"></path></g><path d="M287.27,235.29a2.55,2.55,0,0,1-1.64-4.51l71.23-59.54a2.55,2.55,0,0,1,3.27,3.92L288.91,234.7A2.54,2.54,0,0,1,287.27,235.29Z" style="fill:#e0e0e0"></path><path d="M368.76,140a2.65,2.65,0,0,1-.87-.15l-94.3-34.29a2.55,2.55,0,1,1,1.74-4.79l94.3,34.28a2.55,2.55,0,0,1-.87,4.95Z" style="fill:#e0e0e0"></path><g id="freepik--Device--inject-118"><path d="M210.3,414l-2.17-1.26a7.06,7.06,0,0,1-3.2-5.55V216.43a7.08,7.08,0,0,1,3.2-5.55l88-50.8a7.1,7.1,0,0,1,6.41,0l2.18,1.26a7.09,7.09,0,0,1,3.2,5.54v190.8a7.09,7.09,0,0,1-3.2,5.54l-88,50.81A7.1,7.1,0,0,1,210.3,414Z" style="fill:#37474f"></path><path d="M217.8,220.16l-11.94-6.89a6.56,6.56,0,0,0-.93,3.16V407.22a7.06,7.06,0,0,0,3.2,5.55L210.3,414a7.1,7.1,0,0,0,6.41,0l1.09-.63Z" style="fill:#263238"></path><path d="M213.51,221.38v190.8c0,2,1.43,2.87,3.2,1.85l88-50.81a7.09,7.09,0,0,0,3.2-5.54V166.88c0-2-1.44-2.87-3.2-1.85l-88,50.81A7.06,7.06,0,0,0,213.51,221.38Z" style="fill:#455a64"></path><path d="M220.54,233.44l80-46.19c1.51-.87,2.74-.16,2.74,1.59V341.05a6.06,6.06,0,0,1-2.74,4.75l-80,46.19c-1.51.88-2.74.17-2.74-1.58V238.2A6.1,6.1,0,0,1,220.54,233.44Z" style="fill:#fafafa"></path><path d="M260.71,195.39c1.18-.68,2.14-.13,2.14,1.24a4.73,4.73,0,0,1-2.14,3.71c-1.19.69-2.15.13-2.15-1.23A4.73,4.73,0,0,1,260.71,195.39Z" style="fill:#263238"></path><path d="M254.51,206.11c4.36-2.41,12.14-7,16.43-9.57.73-.43,1.32-.13,1.32.66a2.86,2.86,0,0,1-1.32,2.21l-16.46,9.5c-.74.43-1.33.13-1.33-.67A2.72,2.72,0,0,1,254.51,206.11Z" style="fill:#263238"></path><path d="M250.35,208.51c.67-.38,1.21-.07,1.21.7a2.65,2.65,0,0,1-1.21,2.08c-.66.39-1.2.08-1.2-.69A2.67,2.67,0,0,1,250.35,208.51Z" style="fill:#263238"></path><path d="M260.71,373.76c2.37-1.37,4.29-.26,4.29,2.48a9.49,9.49,0,0,1-4.29,7.43c-2.37,1.37-4.29.26-4.29-2.48A9.49,9.49,0,0,1,260.71,373.76Z" style="fill:#263238"></path></g><g id="freepik--character--inject-118"><g style="clip-path:url(#freepik--clip-path-5--inject-118)"><g id="freepik--character--inject-118"><path d="M273.06,267.47c5.95.39,7.67,1.19,11.65,5.59,3.52,3.88,18.28,19.19,19.41,21.32s-6.42,8.23-6.42,8.23l-21.37-20Z" style="fill:#ffa8a7"></path><path d="M248.29,235.43l-4.36-2.34a2.4,2.4,0,0,1,3.3-1.09A2.6,2.6,0,0,1,248.29,235.43Z" style="fill:#263238"></path><path d="M248.36,234.15,247,229.4a2.4,2.4,0,0,1,3.1,1.58A2.61,2.61,0,0,1,248.36,234.15Z" style="fill:#263238"></path><path d="M283.88,244a22.13,22.13,0,0,1-6.51,15.75l-15.11.53.05,5.66h0c-8.9,0-17.42-8.2-17.42-20h0a19.15,19.15,0,0,1,18.62-19.61h0c10.54-.28,20.08,7.15,20.37,17.69Z" style="fill:#263238"></path><path d="M288.56,352.73l-17.48,10.09-3.57-16.14s-.84,9.82-1.8,19.24L246.57,377c-.23-4.18-.58-10.25-1.1-17-1-13.48-2.41-30.58,1.27-40.61l38.91,1.19C286.23,326.87,287.59,340.21,288.56,352.73Z" style="fill:#FF3366"></path><g style="opacity:0.5"><path d="M288.56,352.73l-16.91,9.76-.57.33-3.57-16.14s-.84,9.82-1.8,19.24L246.57,377c-.23-4.18-.58-10.25-1.1-17-1-13.48-2.41-30.58,1.27-40.61l38.91,1.19C286.23,326.87,287.59,340.21,288.56,352.73Z"></path></g><path d="M270.38,342l-.63,5.93,1.9,14.56-.57.33-3.57-16.14.51-6.49a17.45,17.45,0,0,0,10-2.87A14.37,14.37,0,0,1,270.38,342Z" style="opacity:0.5"></path><path d="M257.15,269.51a47.27,47.27,0,0,0-6.25,1.25c3.31,7.8-1.15,17.83-1.15,17.83l4.5,16.05c-4.18,4.71-5.81,7.82-7.49,14.7,2.82,3.26,20.16,11,38.89,1.23,0,0-1.71-12.3-2.44-19.57,2.81-11.74,2.12-14.26,1.31-17.37-2.26-8.74-4.66-10.2-11.46-16.16h-4.13Z" style="fill:#FF3366"></path><g style="opacity:0.1"><polygon points="251.66 295.42 260.85 307.64 254.25 304.64 251.66 295.42"></polygon></g><path d="M275.5,234.5c2.05,1.13,4.68,6.14,4.72,16.77,0,9-2.82,11.32-4.27,12s-4.28.37-7.05,0l0,4.22s5,4.94,4.81,7.42-6.34,3.78-10,1.45a29.12,29.12,0,0,1-6.62-6.48l-.4-12.91s-1.58,1.61-4.39-.71c-2.32-1.92-3.17-5.23-1.45-7.07a4,4,0,0,1,6.31,1.08s4.39,0,10.14-3.33A16.4,16.4,0,0,0,275.5,234.5Z" style="fill:#ffa8a7"></path><path d="M269,249.59a1.14,1.14,0,0,1-1,1.25,1.16,1.16,0,0,1-1.23-1.09,1.13,1.13,0,1,1,2.26-.16Z" style="fill:#263238"></path><path d="M269.5,257.21l2.66.77a1.36,1.36,0,0,1-1.69,1A1.46,1.46,0,0,1,269.5,257.21Z" style="fill:#f28f8f"></path><path d="M278.19,245.85l-2.34-1.52a1.33,1.33,0,0,1,1.89-.44A1.45,1.45,0,0,1,278.19,245.85Z" style="fill:#263238"></path><path d="M266.87,244.88l-1.74,1.61a1.56,1.56,0,0,1-.2-2.07C265.41,244,266.27,244.18,266.87,244.88Z" style="fill:#263238"></path><path d="M277.73,248.53a1.15,1.15,0,0,1-1,1.26,1.18,1.18,0,1,1,1-1.26Z" style="fill:#263238"></path><polygon points="272.6 247.46 272.74 254.84 276.29 253.63 272.6 247.46" style="fill:#f28f8f"></polygon><path d="M268.9,263.25c-2.9-.3-8.91-1.85-9.9-4.18a6.07,6.07,0,0,0,2.17,2.95c1.82,1.48,7.74,3.05,7.74,3.05Z" style="fill:#f28f8f"></path><path d="M242.49,324.29c.89.76,5.51,4.73,6.49,5.23,1.94,1,4.6,2.7,9.44,2,5.76-.89,6.74-6.89,4.58-7.11a34.25,34.25,0,0,1-7-1.52c-1.59-.56-2.07-1.35-1.73-1.53a25.63,25.63,0,0,1,3.14-.49c1.5-.25,2.83-1.43,2.77-2.26s-.93-.47-2.47-.45-2.82-.46-5-.26a6.3,6.3,0,0,1-4-.73c-2-.81-11.59-13.56-11.59-13.56l12.62-15a15.55,15.55,0,0,0,1.15-17.83,14.36,14.36,0,0,0-9.38,5.61c-3.85,5-15.81,24.16-16.81,25.6s-.49,3.62,1,5.67C227.81,310.38,242.49,324.29,242.49,324.29Z" style="fill:#ffa8a7"></path><path d="M242.44,282.42h0c6.47,1.14,11.71-3.18,11.71-9.64V258.19h0c-6.47-1.14-11.71,3.17-11.71,9.64Z" style="fill:#263238"></path></g></g><path d="M295.68,300.72c2.85,2.85,5.88,6,8.3,5.95,3.68,0,15.77-24.37,17.62-27,2.15-3.09,4.11-5.46,5-9.31a11.94,11.94,0,0,0-1.67-9.07c-1.68-2.19-4.37-2.41-5,.36a36.83,36.83,0,0,1-2.56,7.88c-.19-.79-1.4-3.75-3-4.43s-2,.55-1.36,2.4c.59,1.64.66,5.78,1.31,7.87.31,1-13.11,17.19-13.11,17.19Z" style="fill:#ffa8a7"></path></g><path d="M258.56,189.43a2.55,2.55,0,0,1-2.55-2.55V128.61a2.55,2.55,0,0,1,5.1,0v58.27A2.55,2.55,0,0,1,258.56,189.43Z" style="fill:#e0e0e0"></path><path d="M285.9,45.72l-8.7-5h0L277,40.6v0c-6.53-3.69-15.48-3.14-25.39,2.58-9.27,5.34-17.73,14.26-24.11,24.58-7.37,11.89-12,25.65-12,38,0,11.51,4,19.58,10.54,23.36v0h0l8.9,5.08c6.58,4.19,15.87,3.82,26.18-2.13,19.95-11.52,36.13-39.53,36.13-62.57C297.31,57.55,292.92,49.28,285.9,45.72Z" style="fill:#37474f"></path><path d="M234.74,134.09l-8.64-4.93,0,0h0c-6.52-3.78-10.54-11.86-10.54-23.36,0-12.33,4.64-26.09,12-38L237,73.31c-7.37,11.88-12,25.62-12,37.94C225.05,122.25,228.73,130.11,234.74,134.09Z" style="fill:#263238"></path><path d="M285.63,45.57c-6.43-3.12-15-2.33-24.45,3.11C251.9,54.05,243.44,63,237,73.31l-9.51-5.51c6.38-10.33,14.84-19.24,24.11-24.58C261.55,37.49,270.5,37,277,40.63v0l.14.08h0Z" style="fill:#455a64"></path><path d="M246.54,128.61a12.47,12.47,0,0,1-6.83-1.87l-.12-.07-.18-.1c-4.38-3-6.77-9.09-6.77-17.16,0-10,3.76-21.86,10.33-32.45,5.7-9.22,13-16.7,20.58-21.09C268,53.31,272.35,52,276.12,52a12.9,12.9,0,0,1,5.59,1.18l.27.14c5.1,2.59,8,9.1,8,17.88,0,19.68-13.86,43.69-30.91,53.53C254.65,127.26,250.31,128.61,246.54,128.61Z" style="fill:#fafafa"></path><g style="clip-path:url(#freepik--clip-path-6--inject-118)"><path d="M287.85,114.75c2,2,4.16,4.23,5.87,4.21,2.61,0,11.17-17.25,12.48-19.14,1.53-2.19,2.91-3.86,3.51-6.59a8.41,8.41,0,0,0-1.18-6.43c-1.18-1.55-3.09-1.7-3.55.26a26.1,26.1,0,0,1-1.82,5.58c-.13-.56-1-2.66-2.12-3.14s-1.43.39-1,1.7c.41,1.16.46,4.1.93,5.58.21.68-9.29,12.17-9.29,12.17Z" style="fill:#fafafa"></path><polygon points="298.7 99.76 299.69 98.52 304.85 102.8 303.34 105.4 298.7 99.76" style="fill:#fafafa"></polygon><path d="M271.83,91.2c4.21.28,5.43.84,8.25,4,2.49,2.75,11.22,13.54,12,15s-2.82,5.88-2.82,5.88l-15.14-14.15Z" style="fill:#fafafa"></path><path d="M304.21,104.34l-5.34-5.12-6.52,8.13s-6.82-7.4-11.13-11.81-6.25-5-10-5.09l5.51,16.17s11.69,10.56,14.05,11.94,2.92,1.78,4.22.89h0C296.33,118.56,304.21,104.34,304.21,104.34Z" style="fill:#fafafa"></path><polygon points="248 217.21 253.82 216.69 253.82 206.71 248 207.23 248 217.21" style="fill:#fafafa"></polygon><polygon points="271.84 207.54 277.67 207.22 277.96 196.63 271.84 196.97 271.84 207.54" style="fill:#fafafa"></polygon><path d="M248.81,135.91c0,5.57-.38,38-.38,38-.14,1.62-1.68,4.6-1.8,10.38-.17,8.39,1.12,28,1.12,28a7.58,7.58,0,0,0,6.49-.44s4.58-28.29,5.62-36.67c.91-7.31,4.5-24.47,4.5-24.47l4,21.62a34.17,34.17,0,0,0-.72,9.33c.27,3.81,3.82,22.69,3.82,22.69a7.76,7.76,0,0,0,6.73-.09s.35-30.15.42-33.67c.08-4-1.67-38.33-1.67-38.33Z" style="fill:#fafafa"></path><path d="M253.83,213.82V213c.31,0,.5.26.62,1,.09.53.17.93.34,1.62a18,18,0,0,0,1,2.89c.82,2,1.52,2.66,3.4,4.86a19.34,19.34,0,0,1,1.81,1.93c.36.59.48,2.33-.12,2.78a10.53,10.53,0,0,1-7.91,1.52,4.24,4.24,0,0,1-3.43-3.55c-.09-.53-.05-1.09-.12-1.62a7.05,7.05,0,0,0-1.46-3.26,9.93,9.93,0,0,1-1.12-1.74c-.49-1.16-.09-2.54.22-3.76.27-1.06.56-2.21.91-2.15,0,.13,0,.64,0,.64a4.31,4.31,0,0,0,2.92.72C251.76,214.82,253.83,214.47,253.83,213.82Z" style="fill:#fafafa"></path><path d="M277.73,205.42c.3,0,.55.38,1.22,1.05a11.2,11.2,0,0,0,3.43,2.16c2.18.9,6.42,2.2,8.34,2.9,1.2.43,1.15,1.89-.09,2.82s-4.24,1.8-7.83,1.31c-2-.26-4.51-1.84-6.13-1.6s-4.63.48-5.82-.23-.72-2.51-.38-4.05.83-4.28,1.37-4.22v.57c.7,1,4.32,1.11,5.86.19Z" style="fill:#fafafa"></path><path d="M263.92,148.25a24.25,24.25,0,0,0,8.12-5.38s-1.57,3.07-6.23,6.22l2.26,21.53Z" style="fill:#fafafa"></path><path d="M258.92,92.3c-2,.65-6,1.66-6.87,5.7-1.08,4.84-1.43,15.2-1.43,15.2l-.37,23c4,2.57,18.76,2.85,27.21-4.07,0,0-1-27.52-1-31.82s-2.39-9.25-9-9Z" style="fill:#fafafa"></path><path d="M267.35,90.86a10.42,10.42,0,0,1,3.77,5.49c.8,3.41.93,42.23.93,42.23s4.12-1.13,6.05-2.81c0,0-.25-30.64-.64-35.67-.6-7.63-.53-9.86-10.1-9.82Z" style="fill:#fafafa"></path><path d="M257.19,91.19s5.49,2.89,5.55,16.33c.05,11.63.44,31.85.44,31.85s-9.09,2.14-14.86-.79c0,0-.68-28.13-.57-32.51.12-5,.9-12.87,2.5-13.66Z" style="fill:#fafafa"></path><path d="M237,124.24c4.44-23.06,6.48-28.61,13.69-31,.63,2.41-.69,12.47-1.12,13.56,0,0-4.85,15.33-5.7,20.6-.75,4.64-1.56,10.47-1.3,14.41a2.87,2.87,0,0,0,.87,1.84c1.34,1.32,1.4,2.43,2.3,3.91.71,1.16,1.43,1.57,1.25,1.85a1.55,1.55,0,0,1-2.09.26,8.16,8.16,0,0,1-1.66-1.44,16,16,0,0,0,1.47,4.16c1.59,3.16,1.32,4.82-3.09,3.89-2.76-.59-4.58-2.77-5.32-9.31a50.14,50.14,0,0,1-.43-7.25C236.12,133.44,236.27,128,237,124.24Z" style="fill:#fafafa"></path><path d="M235.68,137.54l-.17,2.92s5.07.87,7.33,0c0-.18,0-2.56,0-2.56Z" style="fill:#fafafa"></path><path d="M251.32,92.23s1.24,9.67-1.63,16.18c-1.79,4.35-3.9,13.09-5.1,19.87a103.43,103.43,0,0,0-1.44,11.18s-5.56,0-8-.88c0,0,.74-14.24,2.7-24C240.65,100.87,243.33,92.87,251.32,92.23Z" style="fill:#fafafa"></path><polygon points="256.57 98.6 259.09 101.49 257.83 105.15 261.14 113.33 257.15 105.21 258.54 101.73 256.57 98.6" style="fill:#fafafa"></polygon><polygon points="274.32 96.02 273.77 99.29 275.95 101.93 272.92 111.74 275.27 102.1 273.26 99.62 274.32 96.02" style="fill:#fafafa"></polygon><ellipse cx="268.36" cy="72.3" rx="8.38" ry="7.66" transform="translate(30.61 216.25) rotate(-46.27)" style="fill:#fafafa"></ellipse><path d="M254.51,79.23a65.37,65.37,0,0,0,1.82,6.94,2.45,2.45,0,0,0,1.59,1.14L257.83,83Z" style="fill:#fafafa"></path><path d="M256.14,70.34a3.26,3.26,0,0,0-2.49,1.1c-1.07,1.19-.47,4.56.86,7.79l2.44.06Z" style="fill:#fafafa"></path><path d="M257.69,79.23c-.49.33-1.19-.55-1.8-1.13a2.19,2.19,0,0,0-3.56.9c-1,2.2.87,4.83,2.42,5.18,2.68.6,3.08-1.15,3.08-1.15L258,93h0c1.85,2.21,6,4.63,8.25,4,1.79-.47,2.18-3.53.47-5.36V88.7a16.66,16.66,0,0,0,3.62-.13c2-.48,3.2-2.14,3.8-4.33,1-3.51,1.33-6.31.51-13-.89-7.31-9.48-6.62-14.11-3.29S257.69,79.23,257.69,79.23Z" style="fill:#fafafa"></path><path d="M257.69,80.05c-.25,0-1.19-1.44-1.8-2-.84-.69.25-7.76.25-7.76a3.43,3.43,0,0,1,.58-3.81c1.16-1.38,2.77-3.08,8-2.93,3.75.11,7.83.92,11.13-1a6,6,0,0,1-2,6.13,12.09,12.09,0,0,1-4.33,1.54,46.9,46.9,0,0,1-8.69.61c-.91,0-1.11.85-1.6,3.3C258.87,76.35,258.52,80,257.69,80.05Z" style="fill:#fafafa"></path><path d="M256.14,70.89l-3-1.33a1.74,1.74,0,0,1,2.24-.94A1.66,1.66,0,0,1,256.14,70.89Z" style="fill:#fafafa"></path><path d="M266.74,88.7a31.7,31.7,0,0,1-5.93-1.17,4.48,4.48,0,0,1-2.13-1.92A6.33,6.33,0,0,0,259.89,88c1.13,1.33,6.85,1.88,6.85,1.88Z" style="fill:#fafafa"></path><path d="M265.69,77.42a1,1,0,0,1-.88,1,.82.82,0,0,1-.89-.84,1,1,0,0,1,.89-1A.81.81,0,0,1,265.69,77.42Z" style="fill:#fafafa"></path><path d="M264.75,74.17l-1.88,1.21a1.19,1.19,0,0,1,.44-1.54A1,1,0,0,1,264.75,74.17Z" style="fill:#fafafa"></path><path d="M266.35,83.45l2,.57a1.15,1.15,0,0,1-1.37.79A1,1,0,0,1,266.35,83.45Z" style="fill:#fafafa"></path><path d="M273.55,74.13,271.83,73a1.08,1.08,0,0,1,1.49-.36A1.11,1.11,0,0,1,273.55,74.13Z" style="fill:#fafafa"></path><path d="M273,76.52a1,1,0,0,1-.89,1,.82.82,0,0,1-.88-.84,1,1,0,0,1,.88-1A.81.81,0,0,1,273,76.52Z" style="fill:#fafafa"></path><polygon points="268.53 76.08 268.82 81.35 271.58 80.16 268.53 76.08" style="fill:#fafafa"></polygon><path d="M269.48,96.11c-.54,1.33-1.53,2-3.34,2.31a6.25,6.25,0,0,1-5-1.3l2.25-2.44,2.85,1.9.24-2.42Z" style="fill:#fafafa"></path><path d="M268.07,95.54a5.79,5.79,0,0,1,.29,2.38,4.4,4.4,0,0,1-.8,2.07,2.31,2.31,0,0,1-1.94.39,4.79,4.79,0,0,1-1.85-3.86l2.47.06Z" style="fill:#fafafa"></path><path d="M267.56,100s2.93,15.89,3.05,17.19-1.69,6.08-2.8,6.22-3.31-3.86-3.34-5,1.15-18,1.15-18Z" style="fill:#fafafa"></path><path d="M265.62,100.38a2,2,0,0,0,1.94-.39l.05.25a2.37,2.37,0,0,1-2,.58Z" style="fill:#fafafa"></path><path d="M266.24,96.58,258,91l0-1.86s-1.91.9-2.34,4.32A12.8,12.8,0,0,0,262,99.76l1.73-3.24Z" style="fill:#fafafa"></path><path d="M266.74,89.25a3.71,3.71,0,0,1,2.66,1.4c.83,1.28.64,6.5.64,6.5l-2-1.61-1.83,1c.17-1.75.51-4.94.51-4.94Z" style="fill:#fafafa"></path></g><g style="clip-path:url(#freepik--clip-path-7--inject-118)"><g id="freepik--character-boy--inject-118"><path d="M301,122.22a33.56,33.56,0,0,0-4.14.41,7.44,7.44,0,0,1-3.6.27c-1.57-.24-2.67-1.09-5.86-3.73-3.91-3.23-5.33-5-6.26-7.72-1.08-3.14-3.42-12.49-4.65-16-1.6-4.57-5.22-4.57-5.22-4.57a96.54,96.54,0,0,0,.07,12.93c.3,3.78,2.31,8.42,3.12,10.68,1.3,3.61,2.16,5.25,7.5,9A65.21,65.21,0,0,0,290,128.6c1.27.7,2.05,1.15,4.19,2.18a14.18,14.18,0,0,0,2.9,1.09,11.15,11.15,0,0,0,3.38.53,8.55,8.55,0,0,0,4.33-1.4,5.35,5.35,0,0,0,1.72-1.82,3.6,3.6,0,0,0,.42-2.44,1,1,0,0,0-.2-.47,1.18,1.18,0,0,0-.86-.28c-1.72-.11-3.6,0-5.3-.24-1.43-.24-2.41-.6-2.19-.79s1.06,0,2.27-.37,2.06-1.43,1.8-2.06S302.25,122,301,122.22Z" style="fill:#b16668"></path><path d="M267.11,89.74s4.72-.64,7.4,1.74c1.79,1.58,3,4.28,4.43,9,1.05,3.37,3,8.7,3,8.7s-4.29,3.35-9.08,2.62L269.15,99.5Z" style="fill:#FF3366"></path><g id="freepik--character-boy--inject-118"><rect x="251.56" y="206.15" width="5.71" height="9.78" transform="translate(508.83 422.07) rotate(180)" style="fill:#b16668"></rect><polygon points="267.36 208.61 273.07 208.81 273.35 198.46 267.36 198.26 267.36 208.61" style="fill:#b16668"></polygon><path d="M249.12,133.15c0,5.45,1,37.17,1,37.17-.13,1.57-1.64,4.36-1.76,10-.17,8.2,3,30.71,3,30.71a7.51,7.51,0,0,0,6.36.12s2.59-30.51,3.62-38.62c.89-7.08,2.4-26.32,2.4-26.32l2.69,23.12a32.38,32.38,0,0,0-.7,9.07c.26,3.76,1.32,27,1.32,27a7.8,7.8,0,0,0,6.59.5s4-33.13,4.1-36.57c.07-3.93-1.5-44-1.5-44Z" style="fill:#37474f"></path><path d="M252.88,93a5.26,5.26,0,0,0-2.76,2.86,13.63,13.63,0,0,0-.83,4.94V112l-.17,21.13a25.52,25.52,0,0,0,27.37-1.78s-.49-27.2-.49-31.65c0-.2,0-.4,0-.61A10.15,10.15,0,0,0,263.25,90l-5.18,1.33L252.88,93Z" style="fill:#f0f0f0"></path><circle cx="267.54" cy="72.21" r="7.85" style="fill:#263238"></circle><path d="M254,77.79a68.09,68.09,0,0,0,1.79,7A2.71,2.71,0,0,0,257.32,86l-.09-4.2Z" style="fill:#263238"></path><path d="M255.57,69.23a3,3,0,0,0-2.44.86c-1,1.07-.46,4.42.84,7.7l2.4.28Z" style="fill:#263238"></path><path d="M257.09,78.07c-.48.29-1.17-.63-1.76-1.25a2.08,2.08,0,0,0-3.49.56c-1,2.07.85,4.81,2.37,5.29,2.63.82,3-.86,3-.86l.19,9.75h0c3.27,4.19,12.32,3.83,8.55-.54V88.14a16.56,16.56,0,0,0,3.54.18c1.93-.29,3.14-1.82,3.73-3.91.94-3.35,1.29-6.06.5-12.66-.88-7.23-9.29-7.3-13.83-4.45S257.09,78.07,257.09,78.07Z" style="fill:#b16668"></path><path d="M257.09,78.88c-.24,0-1.16-1.52-1.76-2.06-.83-.76.24-7.59.24-7.59a3.22,3.22,0,0,1,.8-3.45c1.13-1.25,2.37-2,5.64-2.21,1.92-.1,5,.2,6.71.31,3.23.22,4.42-.57,6.28-1.1,1.42-.39,1.58,4.73-2,6.43a10.9,10.9,0,0,1-4.24,1.13,45.88,45.88,0,0,1-8.52-.16c-.89-.12-1.08.74-1.56,3.1C258.25,75.35,257.9,78.86,257.09,78.88Z" style="fill:#263238"></path><path d="M255.57,69.77l-2.9-1.56a1.6,1.6,0,0,1,2.2-.73A1.73,1.73,0,0,1,255.57,69.77Z" style="fill:#263238"></path><path d="M266,88.14a33,33,0,0,1-5.81-1.67,4.86,4.86,0,0,1-2.08-2.06,6.75,6.75,0,0,0,1.18,2.43c1.1,1.41,6.71,2.45,6.71,2.45Z" style="fill:#9a4a4d"></path><path d="M265.75,77A.87.87,0,1,1,264,77a.87.87,0,0,1,.87-.89A.88.88,0,0,1,265.75,77Z" style="fill:#263238"></path><path d="M264.83,73.74l-1.84,1a1.11,1.11,0,0,1,.43-1.47A1,1,0,0,1,264.83,73.74Z" style="fill:#263238"></path><path d="M265.57,83l2,.74a1,1,0,0,1-1.34.65A1.11,1.11,0,0,1,265.57,83Z" style="fill:#9a4a4d"></path><path d="M273.2,74.45l-1.69-1.29a1,1,0,0,1,1.47-.23A1.12,1.12,0,0,1,273.2,74.45Z" style="fill:#263238"></path><path d="M272.68,76.75a.87.87,0,1,1-.86-.9A.88.88,0,0,1,272.68,76.75Z" style="fill:#263238"></path><polygon points="268.28 75.93 268.56 81.12 271.27 80.2 268.28 75.93" style="fill:#9a4a4d"></polygon><path d="M257.27,213.11v-.82c.54.24,1.81,5.08,4.08,7.15,1.8,1.64,4.26,3.54,4.88,5.37s-3.42,3-5.1,2.66c-2-.35-5.35-1.72-6.2-3s-1.25-3.16-1.94-4.1-2.28-2-2.66-3.06a7,7,0,0,1,.33-3c.27-1,.55-2.12.9-2v.62a4.49,4.49,0,0,0,2.85,1C255.25,213.91,257.28,213.74,257.27,213.11Z" style="fill:#263238"></path><path d="M273.13,207.05c.3,0,.54.42,1.19,1.13a12.35,12.35,0,0,0,3.36,2.42c2.14,1.07,6.3,2.72,8.18,3.56,1.17.53,1.12,2-.1,2.76s-4.15,1.39-7.67.6c-1.92-.43-4.41-2.2-6-2.1s-4.54.07-5.7-.73-.7-2.53-.37-4,.81-4.13,1.34-4v.56c.69,1,4.23,1.46,5.74.7Z" style="fill:#263238"></path><path d="M263.69,146.22a21.07,21.07,0,0,0,8-4.56s-1.54,2.87-6.1,5.55l.61,20.18Z" style="fill:#263238"></path></g></g><path d="M267.87,137.93a34,34,0,0,0-4-1.1,6.93,6.93,0,0,1-3.24-1.3c-1.37-.79-7.75-11.79-8-14.61-.42-4.38,2.5-16,2.63-19.35.11-2.74.21-6.5-1.4-8-3.44-1.72-6.6,2.83-7.75,8.53-.95,4.71-2.74,14.23-1.23,20.61.74,3.09,8,14.24,10.82,17.22.84.91,2.07,2.8,3.39,4.23a10.84,10.84,0,0,0,4.69,3.13,8.65,8.65,0,0,0,4.54.24,5.49,5.49,0,0,0,2.27-1.08,3.7,3.7,0,0,0,1.26-2.14,1,1,0,0,0,0-.51,1.22,1.22,0,0,0-.7-.57,51.46,51.46,0,0,1-4.87-2.11c-1.25-.74-2-1.43-1.76-1.52s1,.39,2.25.46a3.53,3.53,0,0,0,.46,0l1.75-1.85A9.67,9.67,0,0,0,267.87,137.93Z" style="fill:#b16668"></path><path d="M255.39,92.2c-1.64-.12-5.93,0-8.17,4.16-2,3.69-3.73,11.58-3.68,16.29,0,0,5.89,1.92,10.43,1.47,1-5.31,1.75-8.22,2.36-12.9S256.32,93.44,255.39,92.2Z" style="fill:#FF3366"></path></g><path d="M140,351.44a2.55,2.55,0,0,1-1.27-4.76l69.05-39.61a2.55,2.55,0,1,1,2.54,4.42l-69,39.61A2.55,2.55,0,0,1,140,351.44Z" style="fill:#e0e0e0"></path><path d="M134.84,182a2.55,2.55,0,0,1-1.71-4.45L218,101.27a2.55,2.55,0,1,1,3.41,3.79l-84.84,76.26A2.51,2.51,0,0,1,134.84,182Z" style="fill:#e0e0e0"></path><path d="M208.14,249.34a2.41,2.41,0,0,1-.94-.18L129.66,218.5a2.55,2.55,0,1,1,1.87-4.74l77.55,30.66a2.55,2.55,0,0,1-.94,4.92Z" style="fill:#e0e0e0"></path><path d="M132.15,312.7l-9-5.18h0l-.14-.09,0,0c-6.71-3.79-15.92-3.23-26.12,2.66-9.54,5.5-18.24,14.67-24.8,25.29-7.59,12.23-12.36,26.39-12.36,39.08,0,11.84,4.14,20.15,10.85,24h0l9.15,5.23c6.77,4.31,16.33,3.93,26.94-2.19,20.53-11.85,37.17-40.68,37.17-64.38C143.89,324.87,139.37,316.36,132.15,312.7Z" style="fill:#37474f"></path><path d="M79.52,403.63l-8.9-5.08,0,0h0c-6.7-3.88-10.84-12.2-10.84-24,0-12.69,4.77-26.84,12.36-39.07l9.79,5.67c-7.59,12.22-12.34,26.36-12.34,39C69.55,391.44,73.33,399.53,79.52,403.63Z" style="fill:#263238"></path><path d="M131.88,312.55c-6.62-3.21-15.46-2.4-25.16,3.2-9.55,5.52-18.26,14.71-24.83,25.34l-9.79-5.67c6.56-10.63,15.27-19.8,24.8-25.3,10.2-5.89,19.41-6.45,26.13-2.66v0l.14.09h0Z" style="fill:#455a64"></path><path d="M91.66,398a12.88,12.88,0,0,1-7-1.92l-.12-.08-.19-.11c-4.51-3.09-7-9.34-7-17.64,0-10.33,3.88-22.5,10.63-33.4,5.87-9.48,13.39-17.18,21.18-21.69,4.58-2.64,9-4,12.93-4a13.42,13.42,0,0,1,5.75,1.21l.28.15c5.25,2.66,8.26,9.37,8.26,18.4,0,20.24-14.27,44.95-31.81,55.07C100,396.59,95.54,398,91.66,398Z" style="fill:#fafafa"></path><g style="clip-path:url(#freepik--clip-path-8--inject-118)"><path d="M134.16,383.73c2.07,2.07,4.28,4.35,6,4.33,2.68,0,11.5-17.75,12.85-19.7,1.56-2.25,3-4,3.6-6.78a8.65,8.65,0,0,0-1.21-6.61c-1.22-1.59-3.18-1.75-3.66.26a26.49,26.49,0,0,1-1.87,5.74c-.13-.57-1-2.73-2.18-3.22s-1.47.4-1,1.74.48,4.22,1,5.74c.22.71-9.56,12.53-9.56,12.53Z" style="fill:#fafafa"></path><polygon points="145.32 368.3 146.35 367.02 151.65 371.43 150.09 374.1 145.32 368.3" style="fill:#fafafa"></polygon><path d="M117.67,359.49c4.34.29,5.59.87,8.49,4.08,2.57,2.83,11.55,13.94,12.38,15.49s-2.91,6-2.91,6l-15.57-14.56Z" style="fill:#fafafa"></path><path d="M151,373l-5.5-5.27-6.71,8.36s-7-7.61-11.45-12.15-6.43-5.15-10.26-5.23l5.67,16.63s12,10.86,14.46,12.28,3,1.84,4.34.92h0C142.89,387.64,151,373,151,373Z" style="fill:#fafafa"></path><polygon points="93.15 489.15 99.15 488.62 99.15 478.35 93.15 478.88 93.15 489.15" style="fill:#fafafa"></polygon><polygon points="117.69 479.19 123.68 478.87 123.98 467.97 117.69 468.33 117.69 479.19" style="fill:#fafafa"></polygon><path d="M94,405.5c0,5.73-.4,39.07-.4,39.07-.14,1.66-1.73,4.73-1.85,10.68C91.57,463.88,92.9,484,92.9,484a7.84,7.84,0,0,0,6.68-.46s4.71-29.11,5.78-37.73c.94-7.52,4.64-25.18,4.64-25.18l4.12,22.26a35.1,35.1,0,0,0-.74,9.59c.28,3.92,3.93,23.34,3.93,23.34s2.82,1.67,6.92-.08c0,0,.36-31,.43-34.65.08-4.13-1.72-39.44-1.72-39.44Z" style="fill:#fafafa"></path><path d="M99.15,485.66v-.86c.32,0,.52.27.65,1a13.14,13.14,0,0,0,.35,1.66,17.48,17.48,0,0,0,1,3c.85,2,1.56,2.73,3.51,5a20.38,20.38,0,0,1,1.86,2c.36.61.49,2.4-.13,2.86a10.83,10.83,0,0,1-8.13,1.57,4.38,4.38,0,0,1-3.54-3.66c-.09-.54-.05-1.11-.12-1.66a7.22,7.22,0,0,0-1.5-3.36A9.1,9.1,0,0,1,92,491.41c-.5-1.19-.1-2.61.22-3.87.28-1.08.58-2.28.94-2.21V486a4.44,4.44,0,0,0,3,.74C97,486.69,99.16,486.33,99.15,485.66Z" style="fill:#fafafa"></path><path d="M123.75,477c.31,0,.56.4,1.25,1.09a11.65,11.65,0,0,0,3.53,2.22c2.24.93,6.61,2.27,8.59,3,1.23.45,1.17,1.95-.1,2.91s-4.36,1.85-8.06,1.35c-2-.28-4.64-1.9-6.3-1.66s-4.77.5-6-.23-.74-2.59-.39-4.17.85-4.4,1.41-4.34v.58c.72,1,4.44,1.15,6,.2Z" style="fill:#fafafa"></path><path d="M109.54,418.19a25,25,0,0,0,8.35-5.53s-1.61,3.16-6.41,6.39l2.32,22.16Z" style="fill:#fafafa"></path><path d="M104.4,360.63c-2,.67-6.16,1.71-7.08,5.86-1.11,5-1.47,15.65-1.47,15.65l-.38,23.69c4.13,2.64,19.31,2.93,28-4.19,0,0-1.06-28.32-1.06-32.74s-2.46-9.52-9.25-9.31Z" style="fill:#fafafa"></path><path d="M113.07,359.14a10.71,10.71,0,0,1,3.87,5.66c.83,3.5,1,43.45,1,43.45s4.24-1.16,6.23-2.9c0,0-.26-31.52-.66-36.7-.61-7.85-.55-10.14-10.4-10.1Z" style="fill:#fafafa"></path><path d="M102.61,359.48s5.65,3,5.72,16.81c0,12,.45,32.77.45,32.77s-9.36,2.2-15.29-.81c0,0-.71-28.95-.59-33.46.13-5.15.92-13.24,2.57-14.05Z" style="fill:#fafafa"></path><path d="M81.82,393.49c4.57-23.73,6.67-29.43,14.09-31.94.64,2.48-.72,12.84-1.16,13.95,0,0-5,15.77-5.86,21.21-.77,4.77-1.61,10.77-1.34,14.82a2.91,2.91,0,0,0,.9,1.89c1.37,1.36,1.44,2.5,2.36,4,.73,1.19,1.48,1.61,1.28,1.9a1.59,1.59,0,0,1-2.14.27,8.36,8.36,0,0,1-1.71-1.49,16.24,16.24,0,0,0,1.51,4.29c1.64,3.24,1.36,4.95-3.17,4-2.85-.6-4.72-2.85-5.48-9.57a51.55,51.55,0,0,1-.44-7.46C80.94,403,81.09,397.31,81.82,393.49Z" style="fill:#fafafa"></path><path d="M80.48,407.17l-.18,3s5.22.89,7.55,0c0-.18,0-2.63,0-2.63Z" style="fill:#fafafa"></path><path d="M96.58,360.55s1.27,9.95-1.68,16.65c-1.84,4.48-4,13.48-5.25,20.45a104.58,104.58,0,0,0-1.48,11.5s-5.72,0-8.2-.9c0,0,.76-14.66,2.78-24.68C85.6,369.44,88.36,361.21,96.58,360.55Z" style="fill:#fafafa"></path><polygon points="101.98 367.11 104.56 370.08 103.27 373.84 106.67 382.26 102.57 373.91 104.01 370.33 101.98 367.11" style="fill:#fafafa"></polygon><polygon points="120.24 364.45 119.67 367.82 121.92 370.54 118.8 380.63 121.21 370.71 119.14 368.16 120.24 364.45" style="fill:#fafafa"></polygon><path d="M105.86,340.78a7.42,7.42,0,0,0,8.24,7.51,9.19,9.19,0,0,0,8.25-9,7.43,7.43,0,0,0-8.25-7.52A9.2,9.2,0,0,0,105.86,340.78Z" style="fill:#fafafa"></path><path d="M99.85,347.18a66.49,66.49,0,0,0,1.88,7.14,2.53,2.53,0,0,0,1.64,1.18l-.1-4.41Z" style="fill:#fafafa"></path><path d="M101.53,338A3.33,3.33,0,0,0,99,339.16c-1.1,1.23-.49,4.69.88,8l2.52.06Z" style="fill:#fafafa"></path><path d="M103.12,347.18c-.5.34-1.22-.56-1.84-1.16a2.26,2.26,0,0,0-3.67.92c-1,2.27.9,5,2.49,5.33,2.76.62,3.17-1.18,3.17-1.18l.21,10.23h0c1.9,2.27,6.18,4.76,8.49,4.15,1.84-.49,2.24-3.64.48-5.52v-3a17.83,17.83,0,0,0,3.72-.14c2-.49,3.3-2.21,3.92-4.46,1-3.61,1.36-6.49.52-13.34-.92-7.52-9.75-6.81-14.52-3.38S103.12,347.18,103.12,347.18Z" style="fill:#fafafa"></path><path d="M103.12,348c-.25,0-1.21-1.49-1.84-2-.87-.71.25-8,.25-8a3.55,3.55,0,0,1,.6-3.93c1.19-1.42,2.85-3.17,8.27-3,3.85.12,8,.95,11.44-1a6.17,6.17,0,0,1-2,6.31,12.61,12.61,0,0,1-4.46,1.58,47.1,47.1,0,0,1-8.94.62c-.94,0-1.14.88-1.64,3.41C104.35,344.21,104,347.93,103.12,348Z" style="fill:#fafafa"></path><path d="M101.54,338.59l-3.06-1.36a1.8,1.8,0,0,1,2.31-1A1.7,1.7,0,0,1,101.54,338.59Z" style="fill:#fafafa"></path><path d="M112.44,356.93a32.67,32.67,0,0,1-6.1-1.21,4.62,4.62,0,0,1-2.19-2,6.56,6.56,0,0,0,1.24,2.44c1.16,1.38,7,1.94,7,1.94Z" style="fill:#fafafa"></path><path d="M111.36,345.31a1,1,0,0,1-.91,1,.83.83,0,0,1-.91-.86,1,1,0,0,1,.91-1A.84.84,0,0,1,111.36,345.31Z" style="fill:#fafafa"></path><path d="M110.4,342l-1.94,1.24a1.22,1.22,0,0,1,.45-1.58A1,1,0,0,1,110.4,342Z" style="fill:#fafafa"></path><path d="M112,351.52l2.07.59a1.18,1.18,0,0,1-1.4.81A1.07,1.07,0,0,1,112,351.52Z" style="fill:#fafafa"></path><path d="M119.44,341.93l-1.77-1.21a1.12,1.12,0,0,1,1.54-.37A1.14,1.14,0,0,1,119.44,341.93Z" style="fill:#fafafa"></path><path d="M118.9,344.39a1,1,0,0,1-.91,1,.84.84,0,0,1-.91-.87,1,1,0,0,1,.91-1A.84.84,0,0,1,118.9,344.39Z" style="fill:#fafafa"></path><polygon points="114.28 343.94 114.58 349.36 117.42 348.14 114.28 343.94" style="fill:#fafafa"></polygon><path d="M115.26,364.55c-.55,1.37-1.58,2-3.44,2.37a6.41,6.41,0,0,1-5.15-1.33l2.32-2.51,2.93,1.95.25-2.48Z" style="fill:#fafafa"></path><path d="M113.81,364a6,6,0,0,1,.3,2.45,4.54,4.54,0,0,1-.83,2.13,2.38,2.38,0,0,1-2,.4,5,5,0,0,1-1.91-4l2.54.06Z" style="fill:#fafafa"></path><path d="M113.28,368.54s3,16.35,3.14,17.68-1.73,6.26-2.88,6.4-3.4-4-3.44-5.18,1.19-18.5,1.19-18.5Z" style="fill:#fafafa"></path><path d="M111.29,368.94a2,2,0,0,0,2-.4l0,.26a2.45,2.45,0,0,1-2.08.6Z" style="fill:#fafafa"></path><path d="M111.92,365l-8.48-5.71,0-1.91s-2,.92-2.41,4.44a13.11,13.11,0,0,0,6.61,6.45l1.78-3.33Z" style="fill:#fafafa"></path><path d="M112.44,357.49a3.83,3.83,0,0,1,2.74,1.43c.85,1.33.65,6.7.65,6.7l-2-1.66L111.92,365c.18-1.8.53-5.08.53-5.08Z" style="fill:#fafafa"></path></g><g style="clip-path:url(#freepik--clip-path-9--inject-118)"><path d="M129,412.42a64.74,64.74,0,0,0,4.45,6.72c4.54,5.3,7.42,6,10.15,4.6,4.35-2.21,3.58-3.87.33-5.58a14.18,14.18,0,0,1-3.84-2.92,10.69,10.69,0,0,0,2.68.15,1.79,1.79,0,0,0,1.64-1.67c0-.37-.88-.24-2.18-.78-1.66-.7-2.69-1.43-4.64-1.67a3.09,3.09,0,0,1-1.72-1.31c-.65-.76-7.61-14.77-8.25-18.15l-2.93-15.72c-.82-6.38-2.56-16.18-8.11-15.73-4,3-1.68,10.57,2.3,31C119.56,395,126.18,407.88,129,412.42Z" style="fill:#ffa8a7"></path><path d="M113.3,359.56s5.89-.73,8.61,2.87c2,2.61,3.17,5.9,3.74,11.57.33,3.17,1.28,9.08,1.28,9.08s-6.53,3-10.15-.32c0,0-.84-12.68-1.93-18.16A30.72,30.72,0,0,0,113.3,359.56Z" style="fill:#455a64"></path><g id="freepik--character-boy--inject-118"><path d="M105.35,341a7.65,7.65,0,0,0,8.49,7.74,9.45,9.45,0,0,0,8.49-9.23,7.66,7.66,0,0,0-8.49-7.75A9.46,9.46,0,0,0,105.35,341Z" style="fill:#263238"></path><polygon points="93.51 495.87 99.49 495.34 99.49 485.11 93.51 485.63 93.51 495.87" style="fill:#ffa8a7"></polygon><polygon points="114.25 486.89 120.22 486.57 120.52 475.71 114.55 476.03 114.25 486.89" style="fill:#ffa8a7"></polygon><path d="M93.91,404.45c0,5.71-.74,40.38-.74,40.38-.14,1.66-1.68,4.82-1.35,11.1.45,8.53,1.2,30.75,1.2,30.75s2.8,2.54,6.76-.59c0,0,5.41-31.3,6.48-39.89.94-7.49,2.52-27.77,2.52-27.77l3.32,27.66s-1,5.66-1.19,9.61,3.24,23.62,3.24,23.62a6.45,6.45,0,0,0,6.51-.33s2.58-30.66,3.19-34.27-2-42.71-2-42.71Z" style="fill:#37474f"></path><path d="M99.65,362.64a7.36,7.36,0,0,0-5.25,5.48,21.31,21.31,0,0,0-.49,4.59v31.74c4.19,4.2,18.81,5,28-2.44,0,0-.18-28-.86-32.58-1.19-7.89-5-10.41-8.87-9.78l-9.23,2.13Z" style="fill:#FF3366"></path><path d="M99.17,347.53s1.37,6.34,1.93,7.36a2.6,2.6,0,0,0,1.69,1.21l-.1-4.53Z" style="fill:#263238"></path><path d="M100.89,338.12a3.43,3.43,0,0,0-2.63,1.16c-1.13,1.26-.5,4.83.91,8.25l2.59.07Z" style="fill:#263238"></path><path d="M102.54,347.54c-.52.35-1.26-.58-1.91-1.19a2.31,2.31,0,0,0-3.77.94c-1.06,2.33.92,5.12,2.57,5.49,2.83.64,3.26-1.21,3.26-1.21l.22,10.21a8.13,8.13,0,0,0,6.89,4.63c5,.24,4-3.82,2.34-5.7v-3.12a17.47,17.47,0,0,0,3.83-.14c2.09-.5,3.4-2.26,4-4.58,1-3.72,1.4-6.68.54-13.74-.94-7.74-10-7-15-3.5S102.54,347.54,102.54,347.54Z" style="fill:#ffa8a7"></path><path d="M102.54,348.41c-.27,0-1.26-1.53-1.91-2.06-.89-.74.26-8.23.26-8.23a3.62,3.62,0,0,1,.87-3.81c1.23-1.46,3.28-1.79,6.78-2.64,1.84-.45,4.63-1.21,6.46-1.71,2.19-.6,4-1.19,5.55,0a3.67,3.67,0,0,1,1.08,4.26,4.05,4.05,0,0,1-.62,1,4.19,4.19,0,0,1-1.58,1.23s-1,.93-4.28,1.62a48.51,48.51,0,0,1-9.21.63c-1,0-1.17.91-1.69,3.51C103.79,344.49,103.41,348.32,102.54,348.41Z" style="fill:#263238"></path><path d="M100.9,338.7l-3.14-1.41a1.85,1.85,0,0,1,2.38-1A1.77,1.77,0,0,1,100.9,338.7Z" style="fill:#263238"></path><path d="M112.13,357.59a33.69,33.69,0,0,1-6.28-1.25,4.77,4.77,0,0,1-2.26-2,6.73,6.73,0,0,0,1.28,2.51c1.19,1.42,7.26,2,7.26,2Z" style="fill:#f28f8f"></path><path d="M111,345.63a1.05,1.05,0,0,1-.93,1.05.86.86,0,0,1-.93-.89,1,1,0,0,1,.93-1.05A.87.87,0,0,1,111,345.63Z" style="fill:#263238"></path><path d="M110,342.19l-2,1.28a1.26,1.26,0,0,1,.46-1.63A1.05,1.05,0,0,1,110,342.19Z" style="fill:#263238"></path><path d="M111.71,352l2.13.61a1.23,1.23,0,0,1-1.45.84A1.11,1.11,0,0,1,111.71,352Z" style="fill:#f28f8f"></path><path d="M119.34,342.15l-1.82-1.24a1.15,1.15,0,0,1,1.58-.38A1.17,1.17,0,0,1,119.34,342.15Z" style="fill:#263238"></path><path d="M118.78,344.69a1.05,1.05,0,0,1-.94,1,.85.85,0,0,1-.93-.89,1.07,1.07,0,0,1,.93-1A.87.87,0,0,1,118.78,344.69Z" style="fill:#263238"></path><polygon points="114.02 344.22 114.33 349.8 117.26 348.55 114.02 344.22" style="fill:#f28f8f"></polygon><path d="M99.49,492.39v-.85c.58.2,1.9,5.15,4.28,7.11,1.88,1.55,4.46,3.32,5.11,5.18s-3.58,3.41-5.34,3.25c-2.05-.19-5.6-1.32-6.49-2.57s-1.31-3.2-2-4.11-2.4-1.87-2.79-3a7.53,7.53,0,0,1,.34-3.17c.28-1.08.58-2.27.94-2.2v.65a4.36,4.36,0,0,0,3,.75C97.38,493.42,99.5,493.06,99.49,492.39Z" style="fill:#263238"></path><path d="M120.29,484.73c.31,0,.56.39,1.24,1.08a11.6,11.6,0,0,0,3.52,2.22c2.24.92,6.59,2.27,8.56,3,1.23.45,1.18,1.94-.1,2.9s-4.34,1.83-8,1.33c-2-.27-4.62-1.9-6.28-1.65s-4.75.49-6-.25-.74-2.57-.39-4.15.92-4.35,1.47-4.28v.53c.71,1,4.37,1.15,6,.21Z" style="fill:#263238"></path><path d="M108.78,418.43a24.85,24.85,0,0,0,8.33-5.51s-1.6,3.15-6.38,6.37l1.37,26.8Z" style="fill:#263238"></path></g><path d="M84.8,414.18a66.92,66.92,0,0,0,1.08,8c1.79,6.76,4.09,8.62,7.14,8.56,4.88-.1,4.91-1.93,2.72-4.88a14.17,14.17,0,0,1-2.17-4.3,10.5,10.5,0,0,0,2.34,1.3,1.8,1.8,0,0,0,2.2-.79c.16-.34-.69-.59-1.62-1.65-1.2-1.35-1.81-2.46-3.45-3.52a3.11,3.11,0,0,1-1-1.93c-.24-1-.41-16.61.47-19.93l4.2-15.43c3.41-2.64,7-14.55,1.86-16.56-4.88,1-8.43,7.65-13.74,27.79C83.9,394.39,84.26,408.87,84.8,414.18Z" style="fill:#ffa8a7"></path><path d="M99.65,362.64a5.69,5.69,0,0,1,2.11,4.55c.14,3.27-1.4,8.13-2.33,11.17s-2.87,8.57-2.87,8.57-8-.22-9.85-4.77c0,0,3.76-12.48,7.38-16.75A7.34,7.34,0,0,1,99.65,362.64Z" style="fill:#455a64"></path></g><path d="M101.82,313.42a2.56,2.56,0,0,1-2.55-2.56v-73.8a2.55,2.55,0,0,1,5.1,0v73.8A2.56,2.56,0,0,1,101.82,313.42Z" style="fill:#e0e0e0"></path><path d="M132.91,166.58l-7.62-4.41h0l-.12-.07v0c-5.72-3.22-13.55-2.75-22.23,2.26-8.11,4.68-15.52,12.49-21.1,21.53-6.45,10.4-10.51,22.45-10.51,33.24,0,10.07,3.52,17.14,9.22,20.45v0h0l7.79,4.44c5.76,3.67,13.89,3.35,22.92-1.86,17.46-10.08,31.62-34.61,31.62-54.77C142.89,176.94,139.05,169.7,132.91,166.58Z" style="fill:#FF3366"></path><path d="M88.12,243.94l-7.56-4.32h0c-5.7-3.31-9.22-10.38-9.22-20.45,0-10.8,4-22.83,10.51-33.24l8.33,4.82c-6.46,10.41-10.5,22.43-10.5,33.22C79.64,233.57,82.86,240.46,88.12,243.94Z" style="opacity:0.1"></path><path d="M132.67,166.45c-5.63-2.73-13.15-2-21.4,2.72s-15.54,12.52-21.13,21.56l-8.33-4.82c5.58-9,13-16.84,21.1-21.52,8.68-5,16.52-5.49,22.23-2.27v0l.12.07h0Z" style="fill:#fff;opacity:0.4"></path><path d="M98.45,239.15a10.88,10.88,0,0,1-6-1.64l-.1-.06-.16-.09c-3.84-2.64-5.93-8-5.93-15,0-8.79,3.3-19.14,9-28.41,5-8.07,11.39-14.62,18-18.46a22.81,22.81,0,0,1,11-3.43,11.32,11.32,0,0,1,4.9,1l.23.12c4.47,2.26,7,8,7,15.65,0,17.23-12.14,38.25-27.06,46.86A22.66,22.66,0,0,1,98.45,239.15Z" style="fill:#fafafa"></path><g style="clip-path:url(#freepik--clip-path-10--inject-118)"><path d="M134.61,227c1.76,1.77,3.64,3.71,5.14,3.69,2.29,0,9.78-15.11,10.93-16.76,1.33-1.91,2.55-3.38,3.07-5.77a7.32,7.32,0,0,0-1-5.62c-1-1.36-2.71-1.5-3.11.22a22.72,22.72,0,0,1-1.59,4.88c-.12-.48-.87-2.32-1.86-2.74s-1.25.34-.84,1.48.4,3.59.81,4.89c.19.6-8.13,10.65-8.13,10.65Z" style="fill:#fafafa"></path><polygon points="144.11 213.89 144.98 212.8 149.5 216.55 148.17 218.82 144.11 213.89" style="fill:#fafafa"></polygon><path d="M120.59,206.39c3.68.25,4.75.74,7.22,3.47,2.18,2.41,9.82,11.86,10.53,13.18s-2.48,5.14-2.48,5.14l-13.24-12.39Z" style="fill:#fafafa"></path><path d="M148.94,217.9l-4.68-4.48-5.7,7.11s-6-6.47-9.75-10.34-5.47-4.38-8.72-4.45l4.81,14.15s10.24,9.25,12.3,10.45,2.57,1.57,3.7.79h0C142,230.34,148.94,217.9,148.94,217.9Z" style="fill:#fafafa"></path><polygon points="99.72 316.71 104.83 316.26 104.83 307.52 99.72 307.97 99.72 316.71" style="fill:#fafafa"></polygon><polygon points="120.6 308.24 125.7 307.96 125.96 298.69 120.6 298.99 120.6 308.24" style="fill:#fafafa"></polygon><path d="M100.44,245.54c0,4.87-.33,33.24-.33,33.24-.12,1.41-1.47,4-1.58,9.09-.15,7.33,1,24.49,1,24.49a6.64,6.64,0,0,0,5.68-.39s4-24.77,4.92-32.1c.8-6.4,3.94-21.43,3.94-21.43l3.51,18.94a29.76,29.76,0,0,0-.63,8.17c.24,3.33,3.35,19.85,3.35,19.85a6.79,6.79,0,0,0,5.89-.07s.3-26.4.36-29.48c.07-3.51-1.46-33.56-1.46-33.56Z" style="fill:#fafafa"></path><path d="M104.83,313.74V313c.27,0,.44.22.55.87a13.82,13.82,0,0,0,.29,1.42,15.56,15.56,0,0,0,.9,2.53c.72,1.72,1.32,2.32,3,4.26a16.71,16.71,0,0,1,1.58,1.68c.31.52.42,2-.11,2.44a9.22,9.22,0,0,1-6.92,1.33,3.74,3.74,0,0,1-3-3.11c-.07-.47,0-.95-.1-1.42a6,6,0,0,0-1.28-2.85,8.46,8.46,0,0,1-1-1.53,5.41,5.41,0,0,1,.19-3.29c.24-.92.5-1.94.8-1.88V314a3.81,3.81,0,0,0,2.56.63C103,314.61,104.83,314.31,104.83,313.74Z" style="fill:#fafafa"></path><path d="M125.75,306.38c.27,0,.49.34,1.07.92a9.77,9.77,0,0,0,3,1.9c1.91.78,5.63,1.93,7.31,2.53,1.05.38,1,1.66-.08,2.48a10.24,10.24,0,0,1-6.86,1.14c-1.72-.23-4-1.61-5.36-1.4s-4.06.42-5.1-.2-.63-2.2-.33-3.55.72-3.75,1.2-3.69V307c.61.88,3.78,1,5.13.17Z" style="fill:#fafafa"></path><path d="M113.66,256.33a21.22,21.22,0,0,0,7.11-4.7,16.72,16.72,0,0,1-5.45,5.44l2,18.85Z" style="fill:#fafafa"></path><path d="M109.29,207.36c-1.73.57-5.23,1.45-6,5-.94,4.23-1.25,13.31-1.25,13.31l-.32,20.16c3.51,2.25,16.42,2.49,23.82-3.57,0,0-.91-24.09-.91-27.85s-2.09-8.1-7.86-7.92Z" style="fill:#fafafa"></path><path d="M116.67,206.09a9.18,9.18,0,0,1,3.3,4.82c.7,3,.81,37,.81,37s3.61-1,5.3-2.46c0,0-.22-26.82-.56-31.22-.52-6.69-.47-8.63-8.85-8.6Z" style="fill:#fafafa"></path><path d="M107.77,206.39s4.81,2.53,4.86,14.3c.05,10.17.39,27.87.39,27.87s-8,1.88-13-.68c0,0-.6-24.64-.5-28.47.11-4.38.79-11.26,2.19-11.95Z" style="fill:#fafafa"></path><path d="M90.08,235.32c3.89-20.19,5.68-25,12-27.17.55,2.1-.61,10.92-1,11.86,0,0-4.25,13.42-5,18.05-.66,4.06-1.37,9.16-1.14,12.61a2.49,2.49,0,0,0,.76,1.61c1.17,1.15,1.23,2.12,2,3.42.62,1,1.26,1.38,1.09,1.62a1.36,1.36,0,0,1-1.82.23,6.94,6.94,0,0,1-1.45-1.26,13.52,13.52,0,0,0,1.28,3.64c1.39,2.76,1.16,4.22-2.7,3.4-2.42-.51-4-2.42-4.66-8.14a44,44,0,0,1-.38-6.35C89.33,243.37,89.46,238.57,90.08,235.32Z" style="fill:#fafafa"></path><path d="M88.94,247l-.15,2.56s4.44.76,6.42,0c0-.16,0-2.24,0-2.24Z" style="fill:#fafafa"></path><path d="M102.64,207.3s1.08,8.46-1.43,14.16c-1.57,3.81-3.42,11.47-4.47,17.4a90.41,90.41,0,0,0-1.26,9.79s-4.86,0-7-.78a178.21,178.21,0,0,1,2.36-21C93.3,214.86,95.64,207.86,102.64,207.3Z" style="fill:#fafafa"></path><polygon points="107.23 212.87 109.43 215.4 108.33 218.6 111.23 225.77 107.74 218.66 108.96 215.62 107.23 212.87" style="fill:#fafafa"></polygon><polygon points="122.77 210.62 122.29 213.48 124.2 215.79 121.54 224.38 123.6 215.94 121.84 213.77 122.77 210.62" style="fill:#fafafa"></polygon><path d="M110.54,190.47a6.31,6.31,0,0,0,7,6.39,7.81,7.81,0,0,0,7-7.63,6.31,6.31,0,0,0-7-6.39A7.81,7.81,0,0,0,110.54,190.47Z" style="fill:#fafafa"></path><path d="M105.43,195.91A56,56,0,0,0,107,202a2.12,2.12,0,0,0,1.4,1l-.08-3.75Z" style="fill:#fafafa"></path><path d="M106.85,188.14a2.85,2.85,0,0,0-2.18,1c-.93,1-.41,4,.76,6.81l2.14.06Z" style="fill:#fafafa"></path><path d="M108.21,195.91c-.43.3-1-.47-1.57-1a1.92,1.92,0,0,0-3.12.79,3.57,3.57,0,0,0,2.12,4.53c2.34.53,2.7-1,2.7-1l.17,8.71h0c1.62,1.93,5.26,4.05,7.22,3.53,1.57-.42,1.91-3.09.41-4.7v-2.57a14.24,14.24,0,0,0,3.16-.12c1.72-.42,2.81-1.87,3.33-3.79.84-3.07,1.16-5.52.45-11.35-.78-6.4-8.3-5.8-12.36-2.88S108.21,195.91,108.21,195.91Z" style="fill:#fafafa"></path><path d="M108.21,196.64c-.22,0-1-1.27-1.57-1.71-.74-.61.21-6.79.21-6.79a3,3,0,0,1,.51-3.34c1-1.21,2.43-2.7,7-2.56,3.29.09,6.86.8,9.74-.87a5.25,5.25,0,0,1-1.71,5.37,10.75,10.75,0,0,1-3.79,1.34,40.47,40.47,0,0,1-7.61.53c-.8,0-1,.75-1.4,2.9C109.25,193.39,108.93,196.56,108.21,196.64Z" style="fill:#fafafa"></path><path d="M106.86,188.61l-2.6-1.16a1.53,1.53,0,0,1,2-.83A1.47,1.47,0,0,1,106.86,188.61Z" style="fill:#fafafa"></path><path d="M116.14,204.21a27.58,27.58,0,0,1-5.2-1,3.92,3.92,0,0,1-1.86-1.67,5.37,5.37,0,0,0,1.06,2.07c1,1.17,6,1.66,6,1.66Z" style="fill:#fafafa"></path><path d="M115.21,194.33a.88.88,0,0,1-.77.87.71.71,0,0,1-.77-.74.86.86,0,0,1,.77-.86A.7.7,0,0,1,115.21,194.33Z" style="fill:#fafafa"></path><path d="M114.39,191.49l-1.65,1.06a1.05,1.05,0,0,1,.39-1.35A.87.87,0,0,1,114.39,191.49Z" style="fill:#fafafa"></path><path d="M115.79,199.61l1.76.5a1,1,0,0,1-1.2.69A.9.9,0,0,1,115.79,199.61Z" style="fill:#fafafa"></path><path d="M122.09,191.45l-1.5-1a.94.94,0,0,1,1.3-.31A1,1,0,0,1,122.09,191.45Z" style="fill:#fafafa"></path><path d="M121.63,193.54a.88.88,0,0,1-.77.87.71.71,0,0,1-.77-.74.86.86,0,0,1,.77-.86A.71.71,0,0,1,121.63,193.54Z" style="fill:#fafafa"></path><polygon points="117.7 193.16 117.95 197.78 120.37 196.73 117.7 193.16" style="fill:#fafafa"></polygon><path d="M118.54,210.69c-.48,1.17-1.35,1.71-2.93,2a5.5,5.5,0,0,1-4.38-1.14l2-2.13,2.49,1.66.22-2.12Z" style="fill:#fafafa"></path><path d="M117.3,210.19a5.06,5.06,0,0,1,.26,2.09,3.92,3.92,0,0,1-.71,1.81,2,2,0,0,1-1.7.34,4.22,4.22,0,0,1-1.62-3.38l2.16.06Z" style="fill:#fafafa"></path><path d="M116.85,214.09s2.56,13.91,2.67,15-1.47,5.32-2.45,5.44-2.89-3.38-2.92-4.41,1-15.74,1-15.74Z" style="fill:#fafafa"></path><path d="M115.15,214.43a1.75,1.75,0,0,0,1.7-.34l0,.22a2.06,2.06,0,0,1-1.77.51Z" style="fill:#fafafa"></path><path d="M115.69,211.11l-7.21-4.86,0-1.63s-1.67.79-2,3.78a11.2,11.2,0,0,0,5.63,5.49l1.51-2.84Z" style="fill:#fafafa"></path><path d="M116.14,204.69a3.25,3.25,0,0,1,2.33,1.22c.72,1.13.55,5.7.55,5.7l-1.72-1.42-1.61.92.45-4.33Z" style="fill:#fafafa"></path></g><g style="clip-path:url(#freepik--clip-path-11--inject-118)"><path d="M129.66,229.34c1.36,3.11,5.63,7.63,6.68,8.73a33,33,0,0,1,3.26,3.33c.93,1.47,5.3,4.8,4.06,6.21-2.22,2.53-5.32.44-6.5-.39a53.29,53.29,0,0,1-5-4.15,62.23,62.23,0,0,1-7.33-8.26c-.93-1.24-6-13.45-6.17-16.53,0-1.16-.23-8.61,1.28-9.27,3,0,4.29,1.08,4.89,2.62s.89,3.48,1.32,5.07C127.08,220.08,129.18,228.23,129.66,229.34Z" style="fill:#b16668"></path><path d="M123,226.62c.32,2.9,1.14,14.88,1.14,14.88-9.67,6-21.66,3.63-23.49,1.67a23,23,0,0,1,5.42-9.71L102.92,225s-.37-.86-.36-.87c.21-.37,4.58-5.68.43-13.14l5.64-1,8.26-1c1.8-.06,3.08,0,3.08,0a20.57,20.57,0,0,1,4.15,6.7C124.88,217.59,125.7,220.62,123,226.62Z" style="fill:#37474f"></path><polygon points="104.19 228.41 109.62 234.91 106.06 233.46 104.19 228.41" style="fill:#263238"></polygon><path d="M92.91,252.12a53,53,0,0,0,.88,6.46c1.44,5.47,3.3,7,5.78,6.93,4-.08,4-1.56,2.2-3.95a11.41,11.41,0,0,1-1.76-3.48,8.57,8.57,0,0,0,1.89,1.05,1.44,1.44,0,0,0,1.78-.64c.13-.27-.55-.48-1.31-1.34a12.76,12.76,0,0,0-2.79-2.85,2.51,2.51,0,0,1-.8-1.56c-.2-.78-.34-13.44.38-16.13l3.4-12.49c2.76-2.14,4.63-11.51.43-13.14-5.33,1-5.75,5.93-10,22.23C92.18,236.1,92.47,247.82,92.91,252.12Z" style="fill:#b16668"></path><path d="M125.7,207.3l-10.25.9a12.22,12.22,0,0,1-13.54-12.36h0a13.24,13.24,0,0,1,11.9-12.93h0a10.73,10.73,0,0,1,11.89,10.85Z" style="fill:#263238"></path><path d="M121.45,187.42c1.26.63,2.81,3.66,2.66,10.29-.13,5.63-2,7.17-2.87,7.65s-2.67.39-4.38.26V209s2.36,2.54,2.21,4.1-3.41,2.21-5.63.89a15.73,15.73,0,0,1-4.08-4.09l0-7.75s-1,1.07-2.72-.28c-1.41-1.11-1.89-3.15-.79-4.36a2.39,2.39,0,0,1,3.91.44,14.49,14.49,0,0,0,6.37-2.46A11.42,11.42,0,0,0,121.45,187.42Z" style="fill:#b16668"></path><path d="M117.84,196.85a.81.81,0,0,1-.67.83.66.66,0,0,1-.74-.64.79.79,0,0,1,.67-.82A.64.64,0,0,1,117.84,196.85Z" style="fill:#263238"></path><g style="opacity:0.5"><path d="M118,201.59l1.64.38a.93.93,0,0,1-1.07.68A.82.82,0,0,1,118,201.59Z" style="fill:#9a4a4d"></path></g><path d="M123.63,194.18l-1.43-.87a.84.84,0,1,1,1.43.87Z" style="fill:#263238"></path><path d="M123.3,195.86a.8.8,0,0,1-.67.83.65.65,0,0,1-.74-.64.79.79,0,0,1,.67-.82A.65.65,0,0,1,123.3,195.86Z" style="fill:#263238"></path><g style="opacity:0.5"><polygon points="119.97 195.75 120.08 199.99 122.32 199.1 119.97 195.75" style="fill:#9a4a4d"></polygon></g><g style="opacity:0.5"><path d="M116.86,205.62c-1.81-.08-5.52-.82-6.1-2.24a3.35,3.35,0,0,0,1.3,1.76c1.11.85,4.8,1.6,4.8,1.6Z" style="fill:#9a4a4d"></path></g><path d="M103.8,189.76l-2.75-1.24a1.61,1.61,0,0,1,2.08-.87A1.54,1.54,0,0,1,103.8,189.76Z" style="fill:#263238"></path></g></g></svg>